<?xml version="1.0" standalone="no"?>
<!DOCTYPE svg PUBLIC "-//W3C//DTD SVG 1.1//EN" "http://www.w3.org/Graphics/SVG/1.1/DTD/svg11.dtd">
<svg xmlns="http://www.w3.org/2000/svg">
<defs >
<font id="BalooTamma2" horiz-adv-x="680" ><font-face
    font-family="Baloo Tamma 2"
    units-per-em="1000"
    panose-1="3 8 8 2 4 3 2 2 2 0"
    ascent="1050"
    descent="-673"
    alphabetic="0" />
<glyph unicode=" " glyph-name="space" horiz-adv-x="200" />
<glyph unicode="!" glyph-name="exclam" horiz-adv-x="289" d="M223 563Q223 539 222 497T219 407T212 310T201 223Q193 216 175 213T144 209Q118 209 101 217T78 249Q74 273 71 318T65 416T62 520T60 611Q78 622 100 627T146 633Q182 633 202 616T223 563ZM55
70Q55 108 78 132T144 157Q185 157 208 133T232 70Q232 32 209 8T144 -17Q102 -17 79 7T55 70Z" />
<glyph unicode="&quot;" glyph-name="quotedbl" horiz-adv-x="383" d="M147 386Q136 380 124 378T94 376Q71 376 56 385T38 418L26 612Q55 633 98 633Q132 633 149 620T167 577Q167 563 165 539T160 487T154 432T147 386ZM335 386Q324 380 312 378T282 376Q259
376 244 385T226 418L214 612Q243 633 286 633Q320 633 337 620T355 577Q355 563 354 539T349 487T343 432T335 386Z" />
<glyph unicode="#" glyph-name="numbersign" horiz-adv-x="705" d="M550 364L525 250H630Q635 241 640 226T646 194Q646 163 632 149T594 135H500L470 -1Q458 -3 448 -3T426 -4Q393 -4 373 9T353 58Q353 75 357 96T365 135H264L235 -1Q223 -3 212 -3T191 -4Q158
-4 138 9T118 58Q118 75 122 96T130 135H48Q42 144 37 159T32 191Q32 222 46 236T85 250H155L179 364H76Q70 373 65 388T60 420Q60 452 74 465T112 479H204L234 614Q247 616 258 616T279 616Q311 616 331 604T352 556Q352 538 348 518T339 479H440L470 614Q482
616 493 616T514 616Q547 616 567 604T588 556Q588 538 584 518T575 479H658Q663 470 668 455T674 423Q674 392 660 378T621 364H550ZM289 250H391L415 364H314L289 250Z" />
<glyph unicode="$" glyph-name="dollar" horiz-adv-x="557" d="M255 111Q308 111 330 129T353 174Q353 198 336 212T283 238L232 254Q190 267 156 282T98 319T61 370T47 442Q47 510 89 555T209 616V695Q218 698 234 700T269 703Q308 703 326 690T344 639V621Q407
613 446 590T485 527Q485 504 474 487T447 457Q424 473 386 484T303 495Q255 495 232 480T209 442Q209 422 224 412T271 390L325 372Q372 356 407 338T467 296T503 242T515 172Q515 103 472 56T344 -9V-87Q336 -89 320 -91T284 -94Q245 -94 227 -81T209 -30V-14Q137
-6 92 21T46 93Q46 120 61 138T96 167Q123 145 163 128T255 111Z" />
<glyph unicode="%" glyph-name="percent" horiz-adv-x="794" d="M348 461Q348 425 337 396T304 347T254 316T191 305Q122 305 78 346T34 461Q34 533 78 574T191 616Q225 616 254 606T304 575T336 526T348 461ZM145 461Q145 429 158 414T191 398Q211 398 223 413T236
461Q236 493 224 508T191 523Q171 523 158 508T145 461ZM544 617Q576 612 601 600T626 566Q626 551 619 536T599 503L249 -7Q214 -4 191 9T168 44Q168 58 175 73T194 105L544 617ZM760 148Q760 112 749 83T716 34T666 3T603 -8Q534 -8 490 33T446 148Q446 220 490
261T603 303Q637 303 666 293T716 262T748 213T760 148ZM557 148Q557 116 570 100T603 84Q623 84 636 100T649 148Q649 179 636 194T603 210Q583 210 570 195T557 148Z" />
<glyph unicode="&amp;" glyph-name="ampersand" horiz-adv-x="666" d="M566 -14Q546 -14 530 -6T495 21L470 46Q430 13 379 -1T279 -16Q222 -16 177 -1T102 41T55 105T39 185Q39 220 49 249T77 300T118 339T168 367Q141 400 134 425T126 473Q126 504 138 531T173
579T229 611T307 623Q369 623 395 602T421 548Q421 533 415 518T396 491Q384 496 368 500T335 504Q306 504 289 491T271 453Q271 435 283 419T319 380L458 243Q466 273 469 307T472 373Q504 387 535 387Q577 387 591 364T605 303Q605 265 595 224T562 141L641 64Q639
29 618 8T566 -14ZM287 102Q304 102 330 108T383 133L242 276Q217 266 201 245T184 194Q184 155 210 129T287 102Z" />
<glyph unicode="&apos;" glyph-name="quotesingle" horiz-adv-x="204" d="M156 389Q146 384 131 380T98 376Q73 376 57 387T38 421L26 609Q40 619 59 626T103 633Q137 633 156 619T175 574Q175 560 174 537T169 487T163 435T156 389Z" />
<glyph unicode="(" glyph-name="parenleft" horiz-adv-x="295" d="M219 -132Q184 -132 159 -110T116 -55Q84 1 64 81T44 268Q44 374 65 454T116 589Q133 621 158 643T219 666Q244 666 262 653T292 623Q242 550 216 466T190 268Q190 211 196 162T216 70T248 -13T292
-89Q281 -105 263 -118T219 -132Z" />
<glyph unicode=")" glyph-name="parenright" horiz-adv-x="295" d="M77 -132Q52 -132 34 -119T4 -89Q29 -52 48 -13T80 69T99 162T106 268Q106 325 100 374T80 466T48 548T4 623Q15 639 33 652T77 666Q112 666 137 644T180 589Q210 535 231 455T252 268Q252 162
232 81T180 -55Q162 -87 137 -109T77 -132Z" />
<glyph unicode="*" glyph-name="asterisk" horiz-adv-x="341" d="M70 572Q82 572 101 565L123 556V632Q130 637 142 643T172 649Q193 649 206 639T219 605Q219 600 219 586T217 554L279 582Q294 575 305 562T317 528Q317 506 306 498T274 481L248 470L298 402Q292
382 277 369T241 355Q219 355 208 367T186 397L173 418L132 358Q121 355 111 355Q81 355 66 367T50 400Q50 411 55 421T70 444L91 470L25 489Q20 507 20 523Q20 546 33 559T70 572Z" />
<glyph unicode="+" glyph-name="plus" horiz-adv-x="546" d="M344 351H496Q502 342 507 326T512 291Q512 258 497 244T456 230H344V54Q334 51 316 49T280 46Q243 46 224 58T205 111V230H49Q43 240 39 255T34 288Q34 321 49 336T90 351H205V524Q215 526 233 529T269
533Q304 533 324 520T344 467V351Z" />
<glyph unicode="," glyph-name="comma" horiz-adv-x="224" d="M134 -77Q105 -116 58 -116Q19 -116 -9 -93Q1 -65 10 -34T26 29T40 89T52 144Q67 152 88 158T131 164Q160 164 180 151T201 105Q201 85 195 60T179 10T158 -39T134 -77Z" />
<glyph unicode="-" glyph-name="hyphen" horiz-adv-x="361" d="M51 194Q45 204 40 220T35 254Q35 287 50 302T91 317H309Q314 308 320 292T326 257Q326 224 311 209T270 194H51Z" />
<glyph unicode="." glyph-name="period" horiz-adv-x="220" d="M21 74Q21 112 44 138T110 164Q151 164 175 138T199 74Q199 36 175 10T110 -16Q68 -16 45 10T21 74Z" />
<glyph unicode="/" glyph-name="slash" horiz-adv-x="336" d="M131 -106Q105 -109 85 -109Q48 -109 28 -93T7 -40Q7 -16 14 9T27 53L204 705Q218 707 229 707T251 708Q287 708 308 693T329 643Q329 617 322 593T309 546L131 -106Z" />
<glyph unicode="0" glyph-name="zero" horiz-adv-x="602" d="M409 304Q409 401 380 450T300 500Q250 500 222 451T193 304Q193 204 220 156T300 107Q352 107 380 155T409 304ZM301 -15Q243 -15 195 5T112 65T58 164T39 304Q39 383 58 442T113 542T196 602T301
622Q357 622 405 602T488 542T543 443T563 304Q563 224 544 165T490 65T407 5T301 -15Z" />
<glyph unicode="1" glyph-name="one" horiz-adv-x="386" d="M53 425Q39 434 25 450T11 496Q11 550 77 573L194 615H228Q266 615 289 592T312 531V1Q301 -2 283 -5T243 -8Q198 -8 178 7T158 64V462L53 425Z" />
<glyph unicode="2" glyph-name="two" horiz-adv-x="519" d="M59 525Q59 572 108 597T238 622Q295 622 339 608T412 570T456 512T471 439Q471 385 442 335T349 233L212 119H463Q468 110 473 94T478 61Q478 29 464 15T426 0H77Q36 28 36 84Q36 114 48 135T77 171L223
299Q276 345 296 374T316 430Q316 462 292 480T223 499Q181 499 150 487T96 459Q81 470 70 486T59 525Z" />
<glyph unicode="3" glyph-name="three" horiz-adv-x="516" d="M230 623Q341 623 401 577T461 449Q461 398 434 365T373 317Q393 310 411 298T444 268T467 225T476 168Q476 125 458 91T408 34T331 -2T232 -15Q132 -15 79 13T26 83Q26 108 38 125T68 154Q88 139
122 123T213 107Q267 107 294 127T322 182Q322 214 299 232T223 251H131Q125 261 121 275T116 310Q116 331 120 346T131 371H222Q266 371 286 387T306 434Q306 464 281 482T206 500Q164 500 132 490T79 465Q64 476 54 492T43 530Q43 576 94 599T230 623Z" />
<glyph unicode="4" glyph-name="four" horiz-adv-x="592" d="M290 603Q307 608 329 611T369 615Q390 615 409 611T444 598T468 572T477 530V248H559Q565 239 570 223T576 188Q576 154 561 140T521 125H477V0Q467 -2 448 -5T409 -8Q370 -8 349 3T327 56V125H80Q60
136 45 157T30 209Q30 226 34 246T49 281L290 603ZM335 460H332L190 248H335V460Z" />
<glyph unicode="5" glyph-name="five" horiz-adv-x="525" d="M451 608Q457 598 462 583T467 548Q467 516 453 500T413 484H208L200 374Q218 380 239 384T292 389Q343 389 381 374T445 333T484 271T497 192Q497 150 483 113T438 47T362 2T252 -15Q207 -15 170 -8T105
12T64 45T49 89Q49 115 64 132T97 160Q124 139 157 123T242 107Q293 107 317 131T342 191Q342 226 320 248T250 270Q221 270 201 263T158 244Q113 246 87 269T61 337Q61 341 61 346T62 365L75 524Q78 563 99 585T159 608H451V608Z" />
<glyph unicode="6" glyph-name="six" horiz-adv-x="556" d="M478 539Q478 519 469 502T447 475Q421 487 392 494T337 501Q274 501 237 465T191 358Q211 373 245 386T320 400Q411 400 466 348T521 197Q521 153 506 115T462 47T389 2T288 -15Q173 -15 106 61T39
287Q39 372 60 435T118 540T207 601T319 622Q394 622 436 602T478 539ZM289 107Q327 107 347 131T367 196Q367 238 346 260T288 282Q262 282 237 271T197 243V224Q197 164 223 136T289 107Z" />
<glyph unicode="7" glyph-name="seven" horiz-adv-x="477" d="M426 608Q441 597 453 580T466 536Q466 505 453 476L237 -6Q224 -7 214 -7T192 -7Q151 -7 126 8T101 61Q101 81 110 102T134 155L296 484H37Q32 494 27 510T21 544Q21 578 36 593T75 608H426Z" />
<glyph unicode="8" glyph-name="eight" horiz-adv-x="562" d="M36 167Q36 224 65 261T137 319Q96 339 74 371T52 450Q52 490 68 522T115 577T188 612T282 624Q391 624 453 578T515 451Q515 400 490 368T425 317Q446 308 465 295T498 264T521 221T530 165Q530 123
512 89T462 32T384 -4T282 -17Q227 -17 182 -5T105 32T54 90T36 167ZM377 175Q377 209 350 232T272 266Q230 253 210 229T189 175Q189 139 214 119T282 99Q325 99 351 118T377 175ZM203 443Q203 408 227 390T289 365Q325 376 344 395T364 443Q364 474 343 491T282
508Q246 508 225 490T203 443Z" />
<glyph unicode="9" glyph-name="nine" horiz-adv-x="557" d="M71 68Q71 88 80 106T102 133Q128 121 157 114T215 106Q283 106 324 144T365 251Q346 235 315 224T242 212Q197 212 160 224T95 261T52 323T36 410Q36 454 51 492T96 560T169 605T268 622Q384 622 451
545T518 320Q518 235 498 172T440 68T352 6T238 -15Q162 -15 117 5T71 68ZM276 328Q301 328 324 339T360 368V376Q360 436 337 468T268 500Q230 500 209 477T188 414Q188 372 213 350T276 328Z" />
<glyph unicode=":" glyph-name="colon" horiz-adv-x="245" d="M38 394Q38 432 62 458T127 484Q169 484 192 458T216 394Q216 356 193 331T127 305Q86 305 62 330T38 394ZM34 74Q34 112 57 138T122 164Q164 164 187 138T211 74Q211 36 188 10T122 -16Q81 -16 58 10T34 74Z" />
<glyph unicode=";" glyph-name="semicolon" horiz-adv-x="254" d="M40 394Q40 432 63 458T128 484Q170 484 193 458T217 394Q217 356 194 331T128 305Q87 305 64 330T40 394ZM149 -77Q120 -116 73 -116Q34 -116 6 -93Q16 -65 25 -34T41 29T55 89T67 144Q82 152
103 158T146 164Q175 164 195 151T216 105Q216 85 210 60T194 10T173 -39T149 -77Z" />
<glyph unicode="&lt;" glyph-name="less" horiz-adv-x="487" d="M454 152Q456 146 456 139T456 125Q456 93 441 70T387 46Q368 46 350 53T306 75L58 203Q35 234 35 282Q35 319 45 339T76 371L382 525Q424 514 440 494T456 450Q456 418 440 401T393 367L180 280L454 152Z" />
<glyph unicode="=" glyph-name="equal" horiz-adv-x="511" d="M51 339Q45 349 41 363T36 396Q36 429 51 444T92 460H460Q465 450 470 434T475 399Q475 367 460 353T419 339H51ZM51 131Q45 141 41 155T36 189Q36 222 51 237T92 252H460Q465 242 470 226T475 192Q475
159 460 145T419 131H51Z" />
<glyph unicode="&gt;" glyph-name="greater" horiz-adv-x="485" d="M33 416Q31 422 31 429T30 443Q30 475 45 498T100 522Q118 522 138 514T181 494L427 367Q438 353 444 332T450 288Q450 251 439 230T409 199L109 45Q65 56 50 76T34 120Q34 152 50 169T97 203L305
291L33 416Z" />
<glyph unicode="?" glyph-name="question" horiz-adv-x="491" d="M132 208Q116 219 103 239T90 288Q90 316 105 329T150 351L226 370Q260 381 276 396T292 440Q292 465 271 485T199 505Q158 505 122 495T62 468Q46 480 36 497T25 537Q25 561 39 579T79 610T141
628T219 634Q276 634 320 620T394 580T439 518T455 440Q455 353 400 303T232 229L132 208ZM103 71Q103 109 126 133T192 158Q233 158 256 134T280 71Q280 33 257 9T192 -16Q150 -16 127 8T103 71Z" />
<glyph unicode="@" glyph-name="at" horiz-adv-x="1056" d="M731 119Q737 117 746 115T763 112Q812 112 839 157T867 275Q867 335 844 384T780 470T680 525T553 545Q473 545 408 520T295 449T222 341T196 204Q196 133 219 76T283 -22T380 -84T505 -106Q548 -106
577 -102T627 -94Q634 -105 639 -119T644 -146Q644 -165 637 -179T613 -204T567 -220T494 -226Q413 -226 334 -201T191 -124T89 10T50 204Q50 309 88 394T193 538T353 629T552 661Q654 661 738 634T883 556T977 434T1011 274Q1011 140 947 68T763 -5Q733 -5 698
4T634 31Q611 17 580 9T511 0Q466 0 429 13T365 51T324 114T309 198Q309 252 327 296T377 373T455 422T557 440Q611 440 649 427T715 396Q734 384 744 368T755 333Q755 327 755 322T753 311L731 119ZM461 198Q461 153 483 135T536 116Q569 116 593 134L610 308Q600
313 588 316T555 319Q515 319 488 288T461 198Z" />
<glyph unicode="A" glyph-name="A" horiz-adv-x="620" d="M407 133H211Q200 97 191 62T174 0Q161 -4 147 -7T113 -10Q69 -10 47 5T24 50Q24 64 28 77T37 107Q44 134 57 174T85 260T118 356T151 449T180 531T202 590Q217 599 248 607T311 615Q356 615 390 603T435
561Q454 508 476 438T520 294T564 148T601 19Q590 6 569 -2T517 -10Q474 -10 457 5T431 52L407 133ZM310 475Q296 430 276 373T237 255H380Q363 318 346 375T316 475H310Z" />
<glyph unicode="B" glyph-name="B" horiz-adv-x="615" d="M555 449Q555 404 531 372T460 321Q518 302 547 265T576 176Q576 79 505 32T298 -15Q280 -15 258 -14T212 -11T165 -4T122 8Q70 27 70 76V552Q70 572 80 583T111 600Q144 611 193 616T294 622Q419 622
487 580T555 449ZM416 183Q416 254 325 254H222V114Q238 110 262 108T308 106Q356 106 386 124T416 183ZM222 365H315Q354 365 376 383T398 436Q398 468 373 485T296 503Q277 503 256 502T222 498V365Z" />
<glyph unicode="C" glyph-name="C" horiz-adv-x="574" d="M539 522Q539 499 527 482T499 454Q473 471 443 484T370 497Q290 497 245 447T200 303Q200 207 247 159T378 110Q421 110 451 121T508 149Q523 137 532 119T542 77Q542 57 532 40T495 10Q475 0 441 -8T357
-17Q290 -17 232 2T131 60T64 159T39 303Q39 381 63 441T130 541T228 603T348 624Q439 624 489 595T539 522Z" />
<glyph unicode="D" glyph-name="D" horiz-adv-x="663" d="M463 303Q463 400 416 447T292 495Q274 495 258 494T226 490V118Q239 115 257 114T293 112Q371 112 417 159T463 303ZM625 305Q625 225 601 165T534 65T429 5T292 -15Q275 -15 254 -14T210 -11T164 -4T122
8Q70 27 70 76V552Q70 572 80 583T111 601Q152 614 198 618T282 622Q359 622 422 603T530 545T600 446T625 305Z" />
<glyph unicode="E" glyph-name="E" horiz-adv-x="545" d="M153 -2Q115 -2 93 20T70 81V523Q70 561 92 583T153 606H484Q490 596 495 581T500 547Q500 514 486 498T445 482H223V370H455Q461 360 466 345T471 311Q471 278 457 263T417 247H223V122H488Q494 112 499
96T504 61Q504 28 490 13T450 -2H153V-2Z" />
<glyph unicode="F" glyph-name="F" horiz-adv-x="528" d="M486 606Q492 596 497 580T502 545Q502 512 488 496T447 480H225V349H452Q458 338 463 323T469 288Q469 255 454 240T414 224H227V1Q216 -2 196 -4T154 -7Q107 -7 89 9T70 67V523Q70 561 92 583T153 606H486Z" />
<glyph unicode="G" glyph-name="G" horiz-adv-x="659" d="M606 92Q606 63 595 49T560 21Q546 13 526 6T482 -6T431 -14T378 -17Q306 -17 245 1T137 59T65 158T39 302Q39 381 65 441T137 542T244 603T377 624Q470 624 525 595T580 521Q580 498 568 481T540 453Q515
469 478 483T389 497Q347 497 313 484T253 445T214 384T200 303Q200 254 213 218T251 157T308 121T381 109Q405 109 424 114T455 124V237H340Q334 247 329 263T324 297Q324 329 339 344T378 359H546Q574 359 590 344T606 300V92Z" />
<glyph unicode="H" glyph-name="H" horiz-adv-x="669" d="M227 1Q216 -2 196 -4T154 -7Q107 -7 89 9T70 67V608Q81 610 101 613T142 616Q187 616 207 601T227 542V366H442V608Q453 610 473 613T515 616Q559 616 579 600T599 540V1Q588 -2 568 -4T526 -7Q479 -7
461 9T442 67V242H227V1V1Z" />
<glyph unicode="I" glyph-name="I" horiz-adv-x="297" d="M154 -7Q107 -7 89 9T70 67V608Q81 610 101 613T143 616Q188 616 207 601T227 542V1Q216 -2 196 -4T154 -7Z" />
<glyph unicode="J" glyph-name="J" horiz-adv-x="407" d="M340 174Q340 84 290 35T146 -14Q92 -14 57 4T22 67Q22 86 27 100T40 122Q58 118 73 116T106 113Q183 113 183 193V608Q194 610 214 613T255 616Q300 616 320 601T340 542V174V174Z" />
<glyph unicode="K" glyph-name="K" horiz-adv-x="606" d="M227 1Q216 -2 196 -5T154 -8Q107 -8 89 8T70 67V608Q81 610 101 613T142 616Q187 616 207 601T227 542V362L448 612Q508 612 534 590T560 535Q560 511 549 491T511 444L369 302Q438 227 493 168T585 73Q584
34 559 12T499 -10Q462 -10 439 8T393 52L227 240V1V1Z" />
<glyph unicode="L" glyph-name="L" horiz-adv-x="511" d="M153 -2Q115 -2 93 20T70 81V608Q81 610 101 613T142 616Q187 616 207 601T227 542V125H467Q473 115 478 99T484 64Q484 31 470 15T430 -2H153V-2Z" />
<glyph unicode="M" glyph-name="M" horiz-adv-x="794" d="M475 151Q463 141 444 135T401 129Q369 129 348 137T319 165Q287 258 265 319T229 426H225Q222 364 220 313T217 212T213 113T208 3Q197 -1 179 -4T140 -8Q101 -8 79 5T57 52Q57 71 58 104T62 181T68 275T75
376T82 478T88 572Q96 583 120 596T189 610Q236 610 263 595T304 546Q315 519 327 486T351 417T374 348T396 284H401Q429 372 457 454T506 593Q520 600 541 605T589 610Q634 610 661 597T693 559Q697 539 702 498T712 404T722 293T731 180T738 80T742 10Q727 1
710 -3T667 -8Q634 -8 611 4T585 51Q578 167 576 263T570 422H565Q553 380 531 316T475 151Z" />
<glyph unicode="N" glyph-name="N" horiz-adv-x="675" d="M606 19Q592 7 568 0T511 -8Q477 -8 447 3T397 53L281 277Q264 309 250 341T221 408L214 406Q219 346 220 292T221 186V0Q211 -2 192 -4T151 -7Q106 -7 88 8T70 64V579Q82 596 108 605T165 615Q200 615
229 604T279 555L396 330Q413 298 427 266T456 199L460 200Q455 267 455 327T454 442V608Q464 610 483 613T525 616Q570 616 588 601T606 545V19V19Z" />
<glyph unicode="O" glyph-name="O" horiz-adv-x="700" d="M662 304Q662 226 639 166T573 66T474 4T350 -17Q283 -17 226 4T128 65T63 166T39 304Q39 382 63 441T129 541T227 603T350 624Q416 624 473 603T572 542T638 442T662 304ZM500 304Q500 400 460 448T350
497Q282 497 241 449T200 304Q200 207 240 159T350 110Q419 110 459 158T500 304Z" />
<glyph unicode="P" glyph-name="P" horiz-adv-x="578" d="M227 194V1Q216 -2 196 -4T154 -7Q107 -7 89 9T70 67V552Q70 572 80 583T111 600Q127 606 147 610T189 617T232 621T273 622Q409 622 479 565T549 407Q549 359 532 320T481 252T401 209T293 194H227ZM283
317Q332 317 361 339T390 407Q390 496 284 496Q266 496 253 495T226 492V317H283Z" />
<glyph unicode="Q" glyph-name="Q" horiz-adv-x="702" d="M662 305Q662 202 623 132T516 24Q564 2 609 -13T695 -43Q696 -49 696 -53T696 -62Q696 -112 671 -135T601 -158Q558 -158 509 -133T405 -59L355 -15H350Q283 -15 226 5T128 66T63 167T39 305Q39 383 63
442T129 542T227 603T350 624Q416 624 473 604T572 543T638 443T662 305ZM500 305Q500 400 460 448T350 497Q282 497 241 449T200 305Q200 208 240 160T350 112Q419 112 459 160T500 305Z" />
<glyph unicode="R" glyph-name="R" horiz-adv-x="605" d="M554 411Q554 353 524 307T441 234Q482 180 519 133T575 56Q566 24 542 8T488 -9Q450 -9 430 7T392 53L296 202H227V1Q216 -2 196 -4T154 -7Q107 -7 89 9T70 67V552Q70 572 80 583T111 600Q143 612 188
617T282 622Q418 622 486 566T554 411ZM287 323Q335 323 365 344T395 410Q395 496 280 496Q264 496 251 495T225 491V323H287Z" />
<glyph unicode="S" glyph-name="S" horiz-adv-x="546" d="M252 111Q305 111 327 129T350 174Q350 198 333 212T280 238L229 254Q187 267 153 282T95 319T58 370T44 442Q44 526 107 575T284 624Q327 624 363 618T426 600T467 569T482 527Q482 504 471 487T444 457Q421
473 383 484T300 495Q252 495 229 480T206 442Q206 422 221 412T268 390L322 372Q369 356 404 338T464 296T500 242T512 172Q512 130 496 96T447 36T367 -3T257 -17Q211 -17 172 -10T105 12T60 46T43 93Q43 120 58 138T93 167Q120 145 160 128T252 111Z" />
<glyph unicode="T" glyph-name="T" horiz-adv-x="550" d="M351 480V1Q340 -2 320 -4T278 -7Q231 -7 212 9T193 67V480H36Q30 490 25 506T19 541Q19 575 34 590T75 606H512Q519 596 524 580T529 545Q529 512 514 496T473 480H351Z" />
<glyph unicode="U" glyph-name="U" horiz-adv-x="661" d="M330 -17Q268 -17 220 0T137 48T85 122T67 220V608Q78 610 98 613T140 616Q185 616 204 601T224 542V223Q224 169 253 140T330 110Q378 110 407 139T437 223V608Q448 610 468 613T510 616Q555 616 574
601T594 542V220Q594 166 576 123T524 48T441 0T330 -17Z" />
<glyph unicode="V" glyph-name="V" horiz-adv-x="624" d="M413 18Q400 7 374 -1T316 -9Q278 -9 251 2T214 33Q202 57 186 94T153 177T116 275T80 379T47 482T20 576Q33 588 56 599T107 610Q140 610 160 596T192 544Q222 440 252 344T316 146H322Q352 243 384 360T444
592Q460 600 478 605T519 610Q552 610 575 595T599 546Q599 525 589 483T561 388T523 277T482 167T443 75T413 18Z" />
<glyph unicode="W" glyph-name="W" horiz-adv-x="852" d="M348 458Q359 463 379 468T423 474Q461 474 486 463T517 430Q529 386 540 349T561 276T580 207T599 136H604Q614 198 622 255T637 368T652 479T666 592Q698 611 737 611Q770 611 794 597T818 548Q818 527
814 487T801 396T783 290T761 184T737 90T714 22Q700 10 670 2T608 -7Q566 -7 537 4T500 37Q486 79 468 142T429 279Q421 243 412 207T394 137T377 74T361 21Q347 10 321 2T261 -7Q221 -7 189 5T146 37Q137 56 127 92T105 174T82 274T60 381T41 486T28 579Q41 590
63 600T112 611Q146 611 167 596T195 545Q211 451 221 385T239 272T252 193T263 136H268Q278 177 287 212T305 283T325 361T348 458Z" />
<glyph unicode="X" glyph-name="X" horiz-adv-x="599" d="M295 199L158 -6Q151 -7 144 -7T130 -8Q80 -8 56 12T32 64Q32 90 43 109T75 155L194 307L28 540Q32 553 40 565T61 588T89 605T125 612Q151 612 171 599T212 554L303 416L431 604Q439 606 450 608T476
611Q516 611 539 591T562 542Q562 518 549 498T514 451Q485 415 457 379T400 307L573 64Q566 31 542 12T479 -8Q453 -8 434 5T394 50L295 199Z" />
<glyph unicode="Y" glyph-name="Y" horiz-adv-x="569" d="M555 544Q555 532 547 510T517 449T461 350T371 203V1Q360 -2 341 -4T300 -7Q253 -7 235 9T217 65V204Q191 242 161 289T102 385T48 481T8 565Q19 582 39 596T90 610Q125 610 147 596T189 541Q191 538
199 523T217 487T240 442T262 398T281 362T291 344H296Q312 377 325 407T352 466T378 526T407 593Q423 601 442 605T479 610Q511 610 533 593T555 544Z" />
<glyph unicode="Z" glyph-name="Z" horiz-adv-x="559" d="M328 480H63Q56 491 51 506T46 542Q46 577 61 593T103 609H480Q519 576 519 524Q519 501 509 479T482 437L232 129H509Q515 118 520 102T526 66Q526 31 511 16T470 0H72Q57 13 47 34T37 83Q37 106 48 129T77
172L328 480Z" />
<glyph unicode="[" glyph-name="bracketleft" horiz-adv-x="296" d="M275 657Q281 648 285 633T290 602Q290 570 276 557T239 543H192V-13H275Q281 -22 285 -36T290 -68Q290 -99 276 -113T239 -127H120Q84 -127 67 -107T50 -58V588Q50 616 67 636T120 657H275Z" />
<glyph unicode="\" glyph-name="backslash" horiz-adv-x="356" d="M337 -25Q324 -39 302 -48T259 -58Q234 -58 217 -48T191 -10L14 636Q28 650 50 659T93 669Q117 669 134 659T160 620L337 -25Z" />
<glyph unicode="]" glyph-name="bracketright" horiz-adv-x="308" d="M21 -127Q15 -118 11 -104T6 -72Q6 -40 20 -27T58 -13H104V543H21Q15 552 11 566T6 598Q6 629 20 643T58 657H177Q213 657 229 637T246 588V-58Q246 -86 230 -106T177 -127H21Z" />
<glyph unicode="^" glyph-name="asciicircum" horiz-adv-x="483" d="M161 643Q172 651 193 657T241 664Q270 664 292 656T323 630Q335 612 352 577T387 501T420 417T445 343Q434 332 415 323T374 313Q346 313 330 324T302 368L238 537H234Q226 517 217 492T199
438T182 382T167 328Q153 320 136 316T103 312Q76 312 58 324T39 366Q39 377 45 398T62 444T85 498T111 554T138 604T161 643Z" />
<glyph unicode="_" glyph-name="underscore" horiz-adv-x="501" d="M15 -176Q9 -166 5 -151T0 -118Q0 -85 15 -70T56 -55H486Q491 -65 496 -81T501 -115Q501 -148 486 -162T445 -176H15Z" />
<glyph unicode="`" glyph-name="grave" horiz-adv-x="302" d="M26 644Q25 648 25 654T24 665Q24 697 43 716T90 735Q108 735 125 727T157 702L246 590Q242 558 223 543T182 528Q163 528 150 533T123 552L26 644Z" />
<glyph unicode="a" glyph-name="a" horiz-adv-x="535" d="M256 97Q278 97 299 101T332 113V205L250 198Q218 195 199 184T179 149Q179 125 197 111T256 97ZM250 496Q302 496 344 486T417 453T463 397T480 317V91Q480 65 467 50T434 23Q403 4 358 -6T256 -16Q153
-16 92 23T31 144Q31 213 72 249T198 294L331 308V319Q331 351 305 366T230 381Q192 381 156 372T90 351Q78 359 70 375T61 411Q61 455 107 474Q136 485 174 490T250 496Z" />
<glyph unicode="b" glyph-name="b" horiz-adv-x="582" d="M314 496Q363 496 406 480T480 432T530 353T548 242Q548 179 529 131T476 51T393 2T284 -15Q221 -15 176 0T101 36Q58 65 58 112V651Q69 654 87 657T127 660Q172 660 191 645T211 588V474Q231 483 257
489T314 496ZM286 376Q263 376 245 370T210 353V124Q222 116 240 111T282 106Q332 106 361 140T391 242Q391 312 363 344T286 376Z" />
<glyph unicode="c" glyph-name="c" horiz-adv-x="487" d="M319 375Q265 375 227 341T189 239Q189 172 225 139T318 106Q350 106 374 114T416 132Q433 119 442 105T452 69Q452 31 412 8T301 -15Q241 -15 192 1T107 49T53 128T34 239Q34 304 55 352T112 432T196
480T297 496Q366 496 405 471T445 408Q445 390 437 375T416 349Q398 359 374 367T319 375Z" />
<glyph unicode="d" glyph-name="d" horiz-adv-x="579" d="M286 496Q309 496 329 493T367 483V651Q378 654 396 657T436 660Q481 660 500 645T520 588V101Q520 77 510 61T478 30Q450 13 406 -1T305 -15Q179 -15 107 48T34 239Q34 305 53 353T107 433T187 480T286
496ZM368 361Q355 367 340 371T307 376Q253 376 221 343T189 238Q189 169 219 138T304 106Q325 106 341 110T368 121V361Z" />
<glyph unicode="e" glyph-name="e" horiz-adv-x="543" d="M186 177Q200 135 235 118T316 100Q358 100 395 111T455 137Q470 127 480 111T490 76Q490 53 476 36T438 8T380 -9T306 -15Q247 -15 197 1T111 50T55 132T34 247Q34 311 54 358T109 436T188 481T280 496Q331
496 373 481T446 437T494 370T511 285Q511 253 494 237T446 216L186 177ZM281 383Q238 383 210 357T176 280L367 311Q365 337 344 360T281 383Z" />
<glyph unicode="f" glyph-name="f" horiz-adv-x="424" d="M204 446H374Q379 436 384 421T390 388Q390 356 376 342T338 328H211V1Q201 -2 183 -4T143 -7Q98 -7 78 7T58 64V489Q58 538 74 574T120 632T188 666T272 677Q343 677 377 659T412 598Q412 579 405 565T387
542Q368 548 347 552T298 556Q252 556 228 540T204 484V446Z" />
<glyph unicode="g" glyph-name="g" horiz-adv-x="560" d="M358 39Q338 30 313 25T256 19Q211 19 171 31T100 72T52 145T34 255Q34 314 52 359T103 434T183 480T287 496Q343 496 389 482T462 450Q481 437 492 421T503 379V2Q503 -50 484 -88T432 -150T353 -187T256
-199Q202 -199 163 -190T100 -167Q66 -143 66 -103Q66 -82 75 -65T95 -39Q123 -55 159 -66T237 -78Q293 -78 325 -59T358 6V39ZM283 134Q307 134 324 140T356 156V361Q344 366 330 371T293 376Q245 376 216 347T186 254Q186 220 193 197T214 160T244 140T283 134Z"
/>
<glyph unicode="h" glyph-name="h" horiz-adv-x="579" d="M211 1Q201 -2 183 -4T143 -7Q98 -7 78 7T58 64V651Q69 654 87 657T127 660Q172 660 191 645T211 588V473Q232 483 258 489T316 496Q412 496 466 448T521 302V1Q511 -2 493 -4T453 -7Q408 -7 388 7T368
64V293Q368 338 346 357T288 376Q265 376 246 370T211 354V1V1Z" />
<glyph unicode="i" glyph-name="i" horiz-adv-x="274" d="M213 1Q203 -2 185 -4T145 -7Q100 -7 81 7T61 64V475Q71 478 89 481T129 484Q174 484 193 469T213 412V1ZM52 619Q52 653 75 677T137 701Q175 701 198 677T222 619Q222 584 199 560T137 536Q99 536 76
560T52 619Z" />
<glyph unicode="j" glyph-name="j" horiz-adv-x="279" d="M218 -16Q218 -64 207 -97T176 -153T133 -185T81 -195Q41 -195 19 -171T-5 -110Q31 -93 48 -69T65 0V475Q76 478 94 481T134 484Q179 484 198 469T218 412V-16ZM52 619Q52 653 76 677T138 701Q176 701
199 677T223 619Q223 584 200 560T138 536Q100 536 76 560T52 619Z" />
<glyph unicode="k" glyph-name="k" horiz-adv-x="542" d="M341 247L514 79Q509 37 489 15T430 -8Q401 -8 379 6T330 52L211 193V1Q201 -2 183 -4T143 -7Q98 -7 78 7T58 64V651Q69 654 87 657T127 660Q172 660 191 645T211 588V305L392 489Q439 489 467 468T495
416Q495 389 477 369T419 314L341 247Z" />
<glyph unicode="l" glyph-name="l" horiz-adv-x="277" d="M146 -7Q101 -7 82 7T62 64V651Q72 654 90 657T131 660Q175 660 195 645T215 588V1Q204 -2 186 -4T146 -7Z" />
<glyph unicode="m" glyph-name="m" horiz-adv-x="841" d="M784 1Q773 -2 755 -4T715 -7Q670 -7 651 7T631 64V312Q631 345 613 360T564 376Q544 376 527 369T495 351Q496 346 496 341T497 331V1Q486 -2 468 -4T428 -7Q383 -7 364 7T344 64V312Q344 345 324 360T275
376Q254 376 237 370T209 357V1Q199 -2 181 -4T141 -7Q96 -7 76 7T56 64V373Q56 399 67 415T98 445Q131 468 179 482T281 496Q323 496 360 485T429 449Q459 469 497 482T587 496Q626 496 661 487T724 456T767 400T784 316V1Z" />
<glyph unicode="n" glyph-name="n" horiz-adv-x="577" d="M367 307Q367 342 346 359T290 376Q266 376 246 370T209 355V1Q199 -2 181 -4T141 -7Q96 -7 76 7T56 64V373Q56 399 67 415T98 445Q130 468 180 482T292 496Q401 496 460 448T520 311V1Q509 -2 491 -4T451
-7Q406 -7 387 7T367 64V307V307Z" />
<glyph unicode="o" glyph-name="o" horiz-adv-x="580" d="M545 241Q545 182 527 135T476 54T395 3T290 -15Q232 -15 185 2T104 53T52 133T34 241Q34 299 52 346T104 427T185 478T290 496Q347 496 394 478T474 427T526 346T545 241ZM290 376Q243 376 217 341T191
241Q191 174 216 140T290 105Q338 105 363 140T389 241Q389 305 363 340T290 376Z" />
<glyph unicode="p" glyph-name="p" horiz-adv-x="578" d="M297 -15Q271 -15 249 -11T209 1V-178Q199 -181 181 -184T141 -187Q96 -187 76 -172T56 -115V380Q56 406 67 422T98 452Q128 471 175 483T279 496Q337 496 385 482T469 436T523 357T543 243Q543 180 525
132T473 51T395 2T297 -15ZM274 106Q328 106 357 140T387 243Q387 314 359 345T279 376Q256 376 239 371T208 358V123Q222 115 238 111T274 106Z" />
<glyph unicode="q" glyph-name="q" horiz-adv-x="579" d="M521 -181Q511 -184 493 -187T453 -190Q408 -190 388 -175T368 -118V-1Q351 -7 329 -11T281 -15Q227 -15 182 1T104 48T53 128T34 239Q34 303 53 351T108 431T193 479T304 496Q359 496 406 483T480 452Q500
439 510 423T521 380V-181ZM303 106Q323 106 339 110T369 123V361Q359 366 343 371T307 376Q253 376 221 343T189 239Q189 170 219 138T303 106Z" />
<glyph unicode="r" glyph-name="r" horiz-adv-x="405" d="M209 1Q199 -2 181 -4T141 -7Q96 -7 76 7T56 64V369Q56 397 70 417T109 452Q142 472 188 483T286 495Q390 495 390 425Q390 408 385 394T374 370Q351 375 318 375Q289 375 260 368T209 349V1Z" />
<glyph unicode="s" glyph-name="s" horiz-adv-x="483" d="M450 141Q450 67 395 26T233 -16Q191 -16 157 -10T97 8T58 38T44 80Q44 102 53 117T76 143Q105 126 142 113T228 100Q299 100 299 140Q299 157 287 166T244 182L204 191Q122 208 82 243T42 343Q42 414
99 455T254 497Q290 497 322 492T377 475T413 448T427 409Q427 389 419 374T398 348Q390 353 375 359T341 370T303 378T266 381Q231 381 212 372T192 343Q192 329 203 321T243 306L281 297Q372 277 411 239T450 141Z" />
<glyph unicode="t" glyph-name="t" horiz-adv-x="392" d="M209 159Q209 131 227 119T277 106Q292 106 309 109T338 118Q347 108 353 95T359 65Q359 30 332 8T236 -15Q152 -15 105 23T58 149V598Q69 601 87 604T126 608Q170 608 189 593T209 536V471H347Q352 461
357 446T362 413Q362 381 348 367T310 353H209V159V159Z" />
<glyph unicode="u" glyph-name="u" horiz-adv-x="576" d="M520 100Q520 53 479 28Q447 8 400 -3T296 -15Q242 -15 198 -4T123 33T74 96T56 188V479Q67 482 85 485T125 488Q170 488 189 473T209 416V189Q209 144 232 125T297 105Q323 105 340 109T367 119V479Q377
482 395 485T435 488Q480 488 500 473T520 416V100V100Z" />
<glyph unicode="v" glyph-name="v" horiz-adv-x="535" d="M435 491Q466 491 487 477T509 430Q509 415 502 385T482 317T455 236T423 151T390 73T361 13Q349 4 325 -2T270 -9Q235 -9 210 0T174 29Q165 46 153 76T126 143T96 223T67 308T41 389T22 459Q34 472 55
481T102 491Q134 491 154 478T184 428L228 270Q240 228 252 188T270 124H275Q298 202 321 294T364 474Q395 491 435 491Z" />
<glyph unicode="w" glyph-name="w" horiz-adv-x="779" d="M394 286Q385 249 374 210T352 134T331 66T315 15Q288 -9 229 -9Q193 -9 166 1T130 31Q119 55 104 107T75 221T47 347T26 459Q38 472 59 481T106 491Q138 491 158 477T183 427Q193 357 200 307T214 222T224
166T231 132H235Q239 148 247 180T266 252T289 339T314 433Q331 443 349 448T394 454Q426 454 448 444T477 412Q490 367 502 324T524 243T541 177T553 132H558Q572 211 585 297T609 473Q625 482 643 486T679 491Q710 491 730 478T751 431Q751 416 746 384T732 312T712
228T690 142T669 67T651 15Q640 4 614 -2T558 -9Q482 -9 469 28Q462 48 452 77T432 140T411 212T394 286Z" />
<glyph unicode="x" glyph-name="x" horiz-adv-x="515" d="M76 141Q98 167 120 193T165 246L28 411Q35 446 56 467T109 488Q124 488 135 485T155 474T173 457T192 433L264 336L378 487Q382 488 386 488T393 488Q435 488 460 470T485 423Q485 400 474 382T434 332L356
243L492 64Q487 29 465 10T411 -10Q378 -9 358 9T317 56L253 148L143 -7Q139 -7 133 -7T123 -8Q78 -8 54 11T30 58Q30 79 40 95T76 141Z" />
<glyph unicode="y" glyph-name="y" horiz-adv-x="539" d="M136 120Q113 170 84 250T22 459Q34 472 55 481T102 491Q134 491 154 478T185 428Q207 355 229 284T275 141H279Q291 175 304 215T329 299T351 387T370 474Q401 491 435 491Q467 491 490 477T513 431Q513
395 501 340T468 224T422 104T369 -1Q313 -96 268 -142T177 -189Q140 -189 116 -167T87 -109Q119 -81 153 -44T212 32Q195 37 177 54T136 120Z" />
<glyph unicode="z" glyph-name="z" horiz-adv-x="479" d="M67 0Q53 13 45 30T36 68Q36 87 44 104T66 138L254 362H56Q51 372 46 387T40 421Q40 453 54 467T92 481H408Q422 468 431 451T440 412Q440 394 432 377T410 343L225 118H435Q441 109 446 93T451 60Q451
28 437 14T399 0H67V0Z" />
<glyph unicode="{" glyph-name="braceleft" horiz-adv-x="326" d="M184 268Q241 241 241 152V37Q241 3 257 -11T297 -31Q299 -38 299 -44T299 -57Q299 -96 278 -113T221 -131Q169 -131 135 -97T101 6V113Q101 159 85 183T33 216Q30 227 28 240T26 268Q26 282 28
295T33 320Q68 328 84 352T101 422V526Q101 595 136 628T224 662Q259 662 279 646T299 588Q299 582 299 576T297 562Q274 557 258 543T241 494V383Q241 295 184 268Z" />
<glyph unicode="|" glyph-name="bar" horiz-adv-x="275" d="M206 -171Q196 -173 179 -175T145 -178Q109 -178 90 -166T70 -114V676Q79 678 96 680T130 683Q166 683 186 671T206 618V-171Z" />
<glyph unicode="}" glyph-name="braceright" horiz-adv-x="326" d="M142 268Q85 295 85 383V494Q85 528 69 542T29 562Q27 570 27 576T27 588Q27 629 47 645T102 662Q155 662 190 629T225 526V422Q225 377 241 353T293 320Q296 309 298 296T300 268Q300 254 298
241T293 216Q258 207 242 183T225 113V6Q225 -63 191 -97T105 -131Q70 -131 49 -114T27 -57Q27 -51 27 -45T29 -31Q52 -26 68 -12T85 37V152Q85 241 142 268Z" />
<glyph unicode="~" glyph-name="asciitilde" horiz-adv-x="493" d="M323 307Q347 307 360 320T382 349Q401 349 417 343T447 326T467 299T475 264Q475 240 466 222T441 192T404 174T359 168Q334 168 311 173T264 185T218 197T171 203Q145 203 132 189T111 162Q93
162 76 168T47 185T27 212T19 247Q19 271 29 289T55 319T92 336T134 342Q161 342 185 337T232 325T278 313T323 307Z" />
<glyph unicode="&#xa0;" glyph-name="uni00A0" horiz-adv-x="200" />
<glyph unicode="&#xa1;" glyph-name="exclamdown" horiz-adv-x="289" d="M66 -96Q66 -72 67 -30T70 60T77 157T88 244Q96 251 114 254T145 258Q171 258 188 250T211 218Q215 194 218 149T224 51T227 -53T229 -144Q211 -155 189 -160T143 -166Q107 -166 87 -149T66
-96ZM234 397Q234 359 211 335T145 310Q104 310 81 334T57 397Q57 435 80 459T145 484Q187 484 210 460T234 397Z" />
<glyph unicode="&#xa2;" glyph-name="cent" horiz-adv-x="489" d="M317 375Q290 375 267 367T226 341T198 298T188 239Q188 172 224 139T317 106Q349 106 373 114T415 132Q432 119 441 105T450 69Q450 35 419 14T330 -13V-90Q322 -93 306 -95T270 -98Q231 -98
213 -84T195 -34V0Q119 23 76 82T33 239Q33 288 45 327T78 396T130 447T195 480V573Q204 576 220 578T255 581Q294 581 312 568T330 517V494Q384 487 414 464T444 408Q444 390 435 375T415 349Q397 359 373 367T317 375Z" />
<glyph unicode="&#xa3;" glyph-name="sterling" horiz-adv-x="504" d="M122 227Q122 231 122 235T121 244H93Q70 244 56 258T42 306Q42 323 47 338T57 363H109Q108 376 108 388T107 412Q107 467 125 507T173 573T245 611T332 624Q399 624 434 602T469 539Q469
522 461 505T441 479Q423 490 404 495T356 501Q308 501 283 479T257 405Q257 396 257 385T259 363H402Q407 353 412 338T417 306Q417 272 403 258T365 244H269Q270 239 270 234T270 225Q270 162 235 119H470Q475 109 480 94T485 61Q485 29 471 15T433 0H100Q75
0 57 19T39 73Q39 78 39 80T40 88Q80 107 101 137T122 227Z" />
<glyph unicode="&#xa4;" glyph-name="currency" horiz-adv-x="557" d="M484 292Q484 253 474 222T444 166L498 101Q487 77 472 65T438 53Q421 53 407 66T380 96L368 111Q348 102 325 98T277 94Q224 94 184 111L136 49Q110 54 90 66T70 101Q70 115 77 129T99 160L106
169Q67 217 67 292Q67 330 77 361T107 417L56 479Q67 503 82 514T116 526Q133 526 147 513T174 483L182 473Q224 491 275 491Q330 491 375 470L421 531Q447 526 466 514T486 479Q486 465 479 451T458 420L450 409Q466 386 475 357T484 292ZM356 292Q356 340 334
364T276 389Q240 389 218 365T195 292Q195 245 217 221T276 196Q311 196 333 220T356 292Z" />
<glyph unicode="&#xa5;" glyph-name="yen" horiz-adv-x="587" d="M71 259Q66 267 62 279T58 306Q58 333 70 344T100 356H149Q114 413 83 468T34 568Q45 584 64 597T113 611Q147 611 168 597T209 544L300 370H306Q321 402 333 428T355 479T378 532T405 595Q421
603 440 607T477 611Q508 611 528 595T548 547Q548 538 544 524T528 488T499 433T454 356H528Q532 346 536 334T541 308Q541 282 529 271T498 259H71ZM376 111V1Q365 -2 346 -4T305 -7Q259 -7 241 9T222 65V111H71Q66 119 62 131T58 158Q58 185 70 196T100 208H527Q532
199 536 186T540 159Q540 133 528 122T498 111H376Z" />
<glyph unicode="&#xa6;" glyph-name="brokenbar" horiz-adv-x="293" d="M206 312Q196 310 179 308T145 305Q109 305 90 317T70 370V676Q79 678 96 680T130 683Q166 683 186 671T206 618V312ZM206 -171Q196 -173 179 -175T145 -178Q109 -178 90 -166T70 -114V192Q79
194 96 196T130 199Q166 199 186 187T206 134V-171Z" />
<glyph unicode="&#xa7;" glyph-name="section" horiz-adv-x="538" d="M486 279Q486 250 474 225T443 183Q486 149 486 89Q486 18 427 -23T250 -64Q208 -64 172 -58T110 -40T69 -10T54 32Q54 55 63 70T87 95Q116 78 155 65T245 52Q294 52 314 62T335 91Q335 108
322 115T277 129L212 140Q131 153 92 188T52 287Q52 346 97 380Q56 415 56 477Q56 547 114 585T268 624Q305 624 338 619T397 603T437 576T452 537Q452 517 444 502T424 476Q415 482 398 487T361 497T320 505T280 508Q245 508 225 499T205 471Q205 457 217 450T255
439L317 429Q486 402 486 279ZM195 291Q195 277 207 264T247 245L326 229Q334 239 338 248T343 271Q343 288 329 301T284 319L212 332Q195 315 195 291Z" />
<glyph unicode="&#xa8;" glyph-name="dieresis" horiz-adv-x="374" d="M161 625Q161 593 140 572T83 550Q48 550 27 571T6 625Q6 657 27 679T83 702Q118 702 139 680T161 625ZM368 625Q368 593 347 572T291 550Q256 550 235 571T213 625Q213 657 234 679T291 702Q326
702 347 680T368 625Z" />
<glyph unicode="&#xa9;" glyph-name="copyright" horiz-adv-x="713" d="M39 306Q39 371 61 428T125 527T225 593T355 617Q426 617 484 593T585 527T650 428T674 306Q674 241 651 185T585 87T485 22T355 -2Q284 -2 226 21T126 86T62 184T39 306ZM355 534Q304 534
264 517T196 470T152 397T137 306Q137 257 152 216T195 146T264 100T355 83Q406 83 446 99T515 145T558 216T573 306Q573 355 558 397T515 469T447 517T355 534ZM391 382Q361 382 340 364T318 310Q318 275 338 256T391 236Q411 236 425 241T450 252Q472 235 472
205Q472 184 445 167T372 150Q338 150 309 160T259 191T225 242T212 311Q212 351 226 381T264 430T316 459T373 469Q415 469 441 453T467 411Q467 384 447 366Q437 372 423 377T391 382Z" />
<glyph unicode="&#xaa;" glyph-name="ordfeminine" horiz-adv-x="354" d="M166 365Q180 365 193 367T215 374V433L164 428Q142 426 130 419T117 398Q117 383 128 374T166 365ZM161 622Q230 622 271 595T312 505V357Q312 342 303 333T282 315Q242 290 166 290Q99
290 59 316T19 394Q19 439 46 463T130 493L214 501V506Q214 528 197 537T148 546Q124 546 100 540T57 525Q49 531 44 542T38 566Q38 582 45 591T68 607Q86 615 112 618T161 622Z" />
<glyph unicode="&#xab;" glyph-name="guillemotleft" horiz-adv-x="554" d="M283 92Q283 66 266 45T212 23Q192 23 176 34T144 62L44 164Q39 174 35 189T30 219Q30 248 37 265T56 293L202 436Q237 427 254 409T272 368Q272 348 264 333T230 292L156 222L283 92ZM521
92Q521 66 504 45T450 23Q430 23 414 34T382 62L282 164Q276 174 272 189T268 219Q268 248 275 265T293 293L440 436Q475 427 492 409T510 368Q510 348 502 333T467 292L394 222L521 92Z" />
<glyph unicode="&#xac;" glyph-name="logicalnot" horiz-adv-x="531" d="M429 436Q460 436 478 418T496 368V182Q487 179 468 177T431 174Q393 174 374 187T354 243V318H49Q44 328 39 343T34 376Q34 408 48 422T87 436H429Z" />
<glyph unicode="&#xad;" glyph-name="uni00AD" horiz-adv-x="361" d="M51 194Q45 204 40 220T35 254Q35 287 50 302T91 317H309Q314 308 320 292T326 257Q326 224 311 209T270 194H51Z" />
<glyph unicode="&#xae;" glyph-name="registered" horiz-adv-x="619" d="M41 373Q41 427 60 474T114 557T199 613T309 633Q368 633 417 613T502 558T558 475T578 373Q578 319 558 272T503 189T418 134T309 114Q249 114 200 134T115 189T60 271T41 373ZM124 373Q124
332 137 298T174 239T232 200T309 186Q351 186 385 200T443 238T479 297T492 373Q492 414 480 448T443 508T385 548T309 562Q267 562 233 548T174 509T137 449T124 373ZM288 339V262Q282 261 273 260T252 259Q236 259 227 264T218 289V476Q218 489 235 495Q265
503 302 503Q356 503 383 481T410 420Q410 394 398 378T366 352L417 284Q414 271 403 264T379 257Q362 257 353 264T335 286L301 339H288ZM306 390Q340 390 340 420Q340 449 304 449Q299 449 295 449T288 448V390H306Z" />
<glyph unicode="&#xaf;" glyph-name="overscore" horiz-adv-x="357" d="M32 565Q27 575 22 590T17 621Q17 654 30 667T67 681H325Q333 671 336 657T340 625Q340 592 327 579T290 565H32Z" />
<glyph unicode="&#xb0;" glyph-name="degree" horiz-adv-x="361" d="M340 478Q340 443 328 416T295 371T244 342T181 332Q146 332 117 342T66 370T32 416T20 478Q20 512 32 539T66 584T117 612T181 622Q215 622 244 613T294 585T328 539T340 478ZM181 533Q161
533 145 520T129 478Q129 448 144 434T181 420Q201 420 216 434T232 478Q232 507 217 520T181 533Z" />
<glyph unicode="&#xb1;" glyph-name="plusminus" horiz-adv-x="507" d="M324 436H458Q463 426 468 410T473 375Q473 343 458 329T417 315H324V183Q315 181 297 178T261 175Q224 175 205 187T186 241V315H49Q43 325 39 339T34 372Q34 405 49 420T90 436H186V563Q195
565 213 568T249 572Q285 572 304 559T324 506V436ZM49 0Q43 10 39 25T34 58Q34 91 49 106T90 121H458Q463 111 468 95T473 61Q473 28 458 14T417 0H49Z" />
<glyph unicode="&#xb2;" glyph-name="twosuperior" horiz-adv-x="279" d="M125 700Q184 700 217 672T250 596Q250 565 231 537T179 482L134 446H246Q249 439 252 430T255 410Q255 373 222 373H44Q34 380 28 391T22 417Q22 451 37 463L112 529Q141 555 150 568T159
593Q159 608 148 617T117 627Q95 627 80 621T53 606Q45 612 39 622T33 648Q33 674 58 687T125 700Z" />
<glyph unicode="&#xb3;" glyph-name="threesuperior" horiz-adv-x="283" d="M124 571Q160 571 160 597Q160 627 113 627Q93 627 76 622T46 609Q24 623 24 650Q24 676 52 688T127 701Q187 701 219 675T251 607Q251 585 239 567T208 540Q229 531 243 512T257 462Q257
416 221 390T126 364Q73 364 44 380T15 421Q15 435 22 446T40 462Q55 453 73 446T116 439Q166 439 166 470Q166 501 126 501H77Q73 507 70 516T67 536Q67 558 77 571H124Z" />
<glyph unicode="&#xb4;" glyph-name="acute" horiz-adv-x="298" d="M179 740Q225 739 248 720T272 674Q272 653 263 639T232 606L138 526Q98 526 78 544T57 586Q57 597 61 607T79 631L179 740Z" />
<glyph unicode="&#xb5;" glyph-name="mu" horiz-adv-x="576" d="M520 100Q520 76 510 59T480 28Q453 11 415 -2T319 -15Q277 -15 248 -6T198 21Q203 -16 206 -50T210 -124V-165Q198 -170 181 -174T141 -179Q96 -179 77 -164T57 -107V479Q67 482 85 485T125 488Q170
488 190 473T210 416V189Q210 144 232 125T297 105Q323 105 340 109T367 119V479Q378 482 396 485T436 488Q480 488 500 473T520 416V100V100Z" />
<glyph unicode="&#xb6;" glyph-name="paragraph" horiz-adv-x="529" d="M387 613Q427 613 449 600T471 541V-69Q462 -71 443 -74T403 -77Q363 -77 341 -64T319 -6V484H250V236Q250 223 236 215T189 207Q157 207 127 218T71 254T31 315T16 403Q16 456 34 495T84
561T157 600T245 613H387Z" />
<glyph unicode="&#xb7;" glyph-name="middot" horiz-adv-x="220" d="M21 268Q21 306 44 332T110 358Q151 358 175 332T199 268Q199 230 175 204T110 178Q68 178 45 204T21 268Z" />
<glyph unicode="&#xb8;" glyph-name="cedilla" horiz-adv-x="195" d="M123 34Q159 13 173 -18T188 -84Q188 -135 157 -167T70 -200Q31 -200 8 -182T-16 -129Q-16 -115 -11 -100H0Q32 -100 46 -85T60 -47Q60 -36 56 -22T40 4L123 34Z" />
<glyph unicode="&#xb9;" glyph-name="onesuperior" horiz-adv-x="220" d="M85 596L41 581Q30 586 20 599T9 630Q9 646 17 656T39 671L112 699H127Q150 699 163 686T176 649V374Q170 372 158 370T134 368Q111 368 98 376T85 411V596Z" />
<glyph unicode="&#xba;" glyph-name="ordmasculine" horiz-adv-x="393" d="M359 457Q359 376 314 334T194 291Q119 291 74 335T29 457Q29 535 74 578T194 622Q268 622 313 578T359 457ZM194 543Q165 543 149 521T132 457Q132 415 148 393T194 371Q223 371 239
393T255 457Q255 498 239 520T194 543Z" />
<glyph unicode="&#xbb;" glyph-name="guillemotright" horiz-adv-x="554" d="M271 368Q271 394 288 415T342 436Q362 436 378 426T410 398L510 295Q515 286 519 271T524 241Q524 212 517 195T498 167L352 23Q317 33 300 51T282 92Q282 112 290 127T324 168L398
238L271 368ZM34 368Q34 394 51 415T104 436Q124 436 140 426T172 398L272 295Q278 286 282 271T286 241Q286 212 279 195T260 167L114 23Q79 33 62 51T44 92Q44 102 46 110T52 127T65 145T87 168L160 238L34 368Z" />
<glyph unicode="&#xbc;" glyph-name="onequarter" horiz-adv-x="625" d="M83 516L39 501Q28 506 18 519T7 550Q7 566 15 576T37 591L110 619H125Q148 619 161 606T174 569V294Q168 292 156 290T132 288Q109 288 96 296T83 331V516ZM480 63H353Q341 69 333 81T325
110Q325 133 338 152L456 316Q466 318 478 320T504 323Q527 323 546 313T566 276V136H610Q612 130 615 121T618 100Q618 80 609 72T587 63H566V1Q560 -1 549 -2T526 -4Q503 -4 492 4T480 36V63ZM483 178Q483 188 483 203T484 235L422 136H483V178ZM447 615Q476
611 493 600T513 569Q513 555 506 541T488 510L134 -7Q105 -3 88 8T68 40Q68 54 75 68T93 99L447 615Z" />
<glyph unicode="&#xbd;" glyph-name="onehalf" horiz-adv-x="633" d="M83 516L39 501Q28 506 18 519T7 550Q7 566 15 576T37 591L110 619H125Q148 619 161 606T174 569V294Q168 292 156 290T132 288Q109 288 96 296T83 331V516ZM480 329Q539 329 572 301T605 225Q605
194 586 166T534 111L489 75H601Q604 68 607 59T610 39Q610 2 577 2H399Q389 9 383 20T377 46Q377 80 392 92L467 158Q496 184 505 197T514 222Q514 237 503 246T472 256Q450 256 435 250T408 235Q400 241 394 251T388 277Q388 303 413 316T480 329ZM447 615Q476
611 493 600T513 569Q513 555 506 541T488 510L134 -7Q105 -3 88 8T68 40Q68 54 75 68T93 99L447 615Z" />
<glyph unicode="&#xbe;" glyph-name="threequarters" horiz-adv-x="679" d="M124 494Q160 494 160 520Q160 550 113 550Q93 550 76 545T46 532Q24 546 24 573Q24 599 52 611T127 624Q187 624 219 598T251 530Q251 508 239 490T208 463Q229 454 243 435T257 385Q257
339 221 313T126 287Q73 287 44 303T15 344Q15 358 22 369T40 385Q55 376 73 369T116 362Q166 362 166 393Q166 424 126 424H77Q73 430 70 439T67 459Q67 481 77 494H124ZM533 63H406Q394 69 386 81T378 110Q378 133 391 152L509 316Q519 318 531 320T557 323Q580
323 599 313T619 276V136H663Q665 130 668 121T671 100Q671 80 662 72T640 63H619V1Q613 -1 602 -2T579 -4Q556 -4 545 4T533 36V63ZM536 178Q536 188 536 203T537 235L475 136H536V178ZM501 615Q530 611 547 600T567 569Q567 555 560 541T542 510L188 -7Q159 -3
142 8T122 40Q122 54 129 68T147 99L501 615Z" />
<glyph unicode="&#xbf;" glyph-name="questiondown" horiz-adv-x="491" d="M350 260Q366 249 379 229T392 180Q392 152 377 139T332 117L256 98Q222 87 206 72T190 28Q190 3 211 -17T283 -37Q324 -37 360 -27T420 0Q436 -12 446 -29T457 -69Q457 -93 443 -111T403
-142T341 -160T263 -166Q206 -166 162 -152T88 -112T43 -50T27 28Q27 115 82 165T250 239L350 260ZM379 397Q379 359 356 335T290 310Q249 310 226 334T202 397Q202 435 225 459T290 484Q332 484 355 460T379 397Z" />
<glyph unicode="&#xc0;" glyph-name="Agrave" horiz-adv-x="620" d="M407 133H211Q200 97 191 62T174 0Q161 -4 147 -7T113 -10Q69 -10 47 5T24 50Q24 64 28 77T37 107Q44 134 57 174T85 260T118 356T151 449T180 531T202 590Q217 599 248 607T311 615Q356 615
390 603T435 561Q454 508 476 438T520 294T564 148T601 19Q590 6 569 -2T517 -10Q474 -10 457 5T431 52L407 133ZM310 475Q296 430 276 373T237 255H380Q363 318 346 375T316 475H310ZM156 745Q155 749 155 755T155 765Q155 798 173 817T220 836Q238 836 254 828T287
802L373 714Q369 682 350 667T309 652Q290 652 276 658T248 676L156 745Z" />
<glyph unicode="&#xc1;" glyph-name="Aacute" horiz-adv-x="620" d="M407 133H211Q200 97 191 62T174 0Q161 -4 147 -7T113 -10Q69 -10 47 5T24 50Q24 64 28 77T37 107Q44 134 57 174T85 260T118 356T151 449T180 531T202 590Q217 599 248 607T311 615Q356 615
390 603T435 561Q454 508 476 438T520 294T564 148T601 19Q590 6 569 -2T517 -10Q474 -10 457 5T431 52L407 133ZM310 475Q296 430 276 373T237 255H380Q363 318 346 375T316 475H310ZM385 841Q423 841 444 823T466 777Q466 758 457 743T423 712L326 651Q290 651
271 667T252 705Q252 717 256 727T274 750L385 841Z" />
<glyph unicode="&#xc2;" glyph-name="Acircumflex" horiz-adv-x="620" d="M319 737Q296 716 272 694T225 651Q197 651 178 667T159 708Q159 728 168 741T202 774L237 803Q263 823 282 832T321 841Q345 841 364 832T404 802L485 718Q485 686 469 670T423 654Q404
654 389 665T351 701L319 737ZM407 133H211Q200 97 191 62T174 0Q161 -4 147 -7T113 -10Q69 -10 47 5T24 50Q24 64 28 77T37 107Q44 134 57 174T85 260T118 356T151 449T180 531T202 590Q217 599 248 607T311 615Q356 615 390 603T435 561Q454 508 476 438T520
294T564 148T601 19Q590 6 569 -2T517 -10Q474 -10 457 5T431 52L407 133ZM310 475Q296 430 276 373T237 255H380Q363 318 346 375T316 475H310Z" />
<glyph unicode="&#xc3;" glyph-name="Atilde" horiz-adv-x="620" d="M407 133H211Q200 97 191 62T174 0Q161 -4 147 -7T113 -10Q69 -10 47 5T24 50Q24 64 28 77T37 107Q44 134 57 174T85 260T118 356T151 449T180 531T202 590Q217 599 248 607T311 615Q356 615
390 603T435 561Q454 508 476 438T520 294T564 148T601 19Q590 6 569 -2T517 -10Q474 -10 457 5T431 52L407 133ZM310 475Q296 430 276 373T237 255H380Q363 318 346 375T316 475H310ZM231 832Q252 832 271 828T309 817T342 807T370 802Q391 802 402 814T418 837H423Q452
837 473 817T495 765Q495 723 469 703T402 683Q378 683 358 687T321 698T289 708T262 713Q241 713 230 701T214 678H210Q181 678 159 697T137 750Q137 771 145 786T167 812T197 827T231 832Z" />
<glyph unicode="&#xc4;" glyph-name="Adieresis" horiz-adv-x="620" d="M407 133H211Q200 97 191 62T174 0Q161 -4 147 -7T113 -10Q69 -10 47 5T24 50Q24 64 28 77T37 107Q44 134 57 174T85 260T118 356T151 449T180 531T202 590Q217 599 248 607T311 615Q356
615 390 603T435 561Q454 508 476 438T520 294T564 148T601 19Q590 6 569 -2T517 -10Q474 -10 457 5T431 52L407 133ZM310 475Q296 430 276 373T237 255H380Q363 318 346 375T316 475H310ZM287 746Q287 714 266 693T209 671Q174 671 153 692T132 746Q132 778 153
800T209 823Q244 823 265 801T287 746ZM494 746Q494 714 473 693T417 671Q382 671 361 692T339 746Q339 778 360 800T417 823Q452 823 473 801T494 746Z" />
<glyph unicode="&#xc5;" glyph-name="Aring" horiz-adv-x="620" d="M407 133H211Q200 97 191 62T174 0Q161 -4 147 -7T113 -10Q69 -10 47 5T24 50Q24 64 28 77T37 107Q44 134 57 174T85 260T118 356T151 449T180 531T202 590Q217 599 248 607T311 615Q356 615
390 603T435 561Q454 508 476 438T520 294T564 148T601 19Q590 6 569 -2T517 -10Q474 -10 457 5T431 52L407 133ZM310 475Q296 430 276 373T237 255H380Q363 318 346 375T316 475H310ZM189 752Q189 797 223 827T316 858Q379 858 413 828T448 752Q448 707 414 678T316
648Q257 648 223 677T189 752ZM283 752Q283 737 293 728T317 719Q334 719 344 728T354 752Q354 767 344 776T317 785Q303 785 293 776T283 752Z" />
<glyph unicode="&#xc6;" glyph-name="AE" horiz-adv-x="869" d="M478 -2Q440 -2 417 20T394 81V133H228L168 1Q155 -3 143 -6T111 -10Q69 -10 50 6T30 50Q30 64 33 77T45 107Q57 133 76 171T117 255T163 347T210 439T252 522T286 585Q299 594 324 602T382 611Q401
611 424 607T468 593Q491 606 516 606H808Q814 596 819 581T824 547Q824 514 810 498T770 482H547V370H779Q786 360 791 345T796 311Q796 278 782 263T741 247H547V122H812Q818 112 823 96T829 61Q829 28 815 13T774 -2H478ZM285 255H394V475H388L285 255Z" />
<glyph unicode="&#xc7;" glyph-name="Ccedilla" horiz-adv-x="574" d="M539 522Q539 499 527 482T499 454Q473 471 443 484T370 497Q290 497 245 447T200 303Q200 207 247 159T378 110Q421 110 451 121T508 149Q523 137 532 119T542 77Q542 57 532 40T495 10Q482
3 463 -2T418 -12Q428 -29 432 -46T436 -84Q436 -135 405 -167T318 -200Q279 -200 256 -182T232 -129Q232 -115 237 -100H248Q280 -100 294 -85T308 -47Q308 -32 300 -13Q244 -6 196 16T113 78T59 173T39 303Q39 381 63 441T130 541T228 603T348 624Q439 624 489
595T539 522Z" />
<glyph unicode="&#xc8;" glyph-name="Egrave" horiz-adv-x="547" d="M155 -2Q117 -2 95 20T72 81V523Q72 561 94 583T155 606H486Q492 596 497 581T502 547Q502 514 488 498T447 482H225V370H457Q463 360 468 345T473 311Q473 278 459 263T419 247H225V122H490Q496
112 501 96T506 61Q506 28 492 13T452 -2H155ZM154 745Q153 749 153 755T153 765Q153 798 171 817T218 836Q236 836 252 828T285 802L371 714Q367 682 348 667T307 652Q288 652 274 658T246 676L154 745Z" />
<glyph unicode="&#xc9;" glyph-name="Eacute" horiz-adv-x="547" d="M155 -2Q117 -2 95 20T72 81V523Q72 561 94 583T155 606H486Q492 596 497 581T502 547Q502 514 488 498T447 482H225V370H457Q463 360 468 345T473 311Q473 278 459 263T419 247H225V122H490Q496
112 501 96T506 61Q506 28 492 13T452 -2H155ZM374 841Q412 841 433 823T455 777Q455 758 446 743T412 712L315 651Q279 651 260 667T241 705Q241 717 245 727T263 750L374 841Z" />
<glyph unicode="&#xca;" glyph-name="Ecircumflex" horiz-adv-x="547" d="M155 -2Q117 -2 95 20T72 81V523Q72 561 94 583T155 606H486Q492 596 497 581T502 547Q502 514 488 498T447 482H225V370H457Q463 360 468 345T473 311Q473 278 459 263T419 247H225V122H490Q496
112 501 96T506 61Q506 28 492 13T452 -2H155ZM293 737Q270 716 247 694T200 651Q171 651 152 667T133 708Q133 728 142 741T176 774L211 803Q237 823 256 832T295 841Q319 841 338 832T378 802L459 718Q459 686 443 670T397 654Q378 654 363 665T325 701L293 737Z"
/>
<glyph unicode="&#xcb;" glyph-name="Edieresis" horiz-adv-x="547" d="M155 -2Q117 -2 95 20T72 81V523Q72 561 94 583T155 606H486Q492 596 497 581T502 547Q502 514 488 498T447 482H225V370H457Q463 360 468 345T473 311Q473 278 459 263T419 247H225V122H490Q496
112 501 96T506 61Q506 28 492 13T452 -2H155ZM265 744Q265 712 244 691T187 669Q152 669 131 690T110 744Q110 776 131 798T187 821Q222 821 243 799T265 744ZM472 744Q472 712 451 691T395 669Q360 669 339 690T317 744Q317 776 338 798T395 821Q430 821 451
799T472 744Z" />
<glyph unicode="&#xcc;" glyph-name="Igrave" horiz-adv-x="297" d="M154 -7Q107 -7 89 9T70 67V608Q81 610 101 613T143 616Q188 616 207 601T227 542V1Q216 -2 196 -4T154 -7ZM-16 745Q-17 749 -17 755T-17 765Q-17 798 1 817T48 836Q66 836 82 828T115 802L201
714Q197 682 178 667T137 652Q118 652 104 658T76 676L-16 745Z" />
<glyph unicode="&#xcd;" glyph-name="Iacute" horiz-adv-x="297" d="M154 -7Q107 -7 89 9T70 67V608Q81 610 101 613T143 616Q188 616 207 601T227 542V1Q216 -2 196 -4T154 -7ZM215 841Q253 841 274 823T296 777Q296 758 287 743T253 712L156 651Q120 651 101
667T82 705Q82 717 86 727T104 750L215 841Z" />
<glyph unicode="&#xce;" glyph-name="Icircumflex" horiz-adv-x="297" d="M154 -7Q107 -7 89 9T70 67V608Q81 610 101 613T143 616Q188 616 207 601T227 542V1Q216 -2 196 -4T154 -7ZM148 737Q125 716 102 694T55 651Q26 651 7 667T-12 708Q-12 728 -3 741T31
774L66 803Q92 823 111 832T150 841Q174 841 193 832T233 802L314 718Q314 686 298 670T252 654Q233 654 218 665T180 701L148 737Z" />
<glyph unicode="&#xcf;" glyph-name="Idieresis" horiz-adv-x="297" d="M154 -7Q107 -7 89 9T70 67V608Q81 610 101 613T143 616Q188 616 207 601T227 542V1Q216 -2 196 -4T154 -7ZM118 744Q118 712 97 691T40 669Q5 669 -16 690T-37 744Q-37 776 -16 798T40 821Q75
821 96 799T118 744ZM325 744Q325 712 304 691T248 669Q213 669 192 690T170 744Q170 776 191 798T248 821Q283 821 304 799T325 744Z" />
<glyph unicode="&#xd0;" glyph-name="Eth" horiz-adv-x="697" d="M658 305Q658 225 634 165T567 65T462 5T325 -15Q308 -15 287 -14T243 -11T197 -4T155 8Q103 27 103 76V244H35Q28 254 23 269T18 304Q18 336 32 351T73 367H103V552Q103 572 113 583T144 601Q185
614 231 618T315 622Q392 622 455 603T563 545T633 446T658 305ZM496 303Q496 400 449 447T325 495Q307 495 291 494T259 490V367H365Q371 357 376 342T381 308Q381 275 367 260T327 244H259V118Q272 115 290 114T326 112Q404 112 450 159T496 303Z" />
<glyph unicode="&#xd1;" glyph-name="Ntilde" horiz-adv-x="675" d="M606 19Q592 7 568 0T511 -8Q477 -8 447 3T397 53L281 277Q264 309 250 341T221 408L214 406Q219 346 220 292T221 186V0Q211 -2 192 -4T151 -7Q106 -7 88 8T70 64V579Q82 596 108 605T165 615Q200
615 229 604T279 555L396 330Q413 298 427 266T456 199L460 200Q455 267 455 327T454 442V608Q464 610 483 613T525 616Q570 616 588 601T606 545V19ZM248 832Q269 832 288 828T326 817T359 807T387 802Q408 802 419 814T435 837H440Q469 837 490 817T512 765Q512
723 486 703T419 683Q395 683 375 687T338 698T306 708T279 713Q258 713 247 701T231 678H227Q198 678 176 697T154 750Q154 771 162 786T184 812T214 827T248 832Z" />
<glyph unicode="&#xd2;" glyph-name="Ograve" horiz-adv-x="700" d="M662 304Q662 226 639 166T573 66T474 4T350 -17Q283 -17 226 4T128 65T63 166T39 304Q39 382 63 441T129 541T227 603T350 624Q416 624 473 603T572 542T638 442T662 304ZM500 304Q500 400
460 448T350 497Q282 497 241 449T200 304Q200 207 240 159T350 110Q419 110 459 158T500 304ZM198 745Q197 749 197 755T197 765Q197 798 215 817T262 836Q280 836 296 828T329 802L415 714Q411 682 392 667T351 652Q332 652 318 658T290 676L198 745Z" />
<glyph unicode="&#xd3;" glyph-name="Oacute" horiz-adv-x="700" d="M662 304Q662 226 639 166T573 66T474 4T350 -17Q283 -17 226 4T128 65T63 166T39 304Q39 382 63 441T129 541T227 603T350 624Q416 624 473 603T572 542T638 442T662 304ZM500 304Q500 400
460 448T350 497Q282 497 241 449T200 304Q200 207 240 159T350 110Q419 110 459 158T500 304ZM430 841Q468 841 489 823T511 777Q511 758 502 743T468 712L371 651Q335 651 316 667T297 705Q297 717 301 727T319 750L430 841Z" />
<glyph unicode="&#xd4;" glyph-name="Ocircumflex" horiz-adv-x="700" d="M662 304Q662 226 639 166T573 66T474 4T350 -17Q283 -17 226 4T128 65T63 166T39 304Q39 382 63 441T129 541T227 603T350 624Q416 624 473 603T572 542T638 442T662 304ZM500 304Q500
400 460 448T350 497Q282 497 241 449T200 304Q200 207 240 159T350 110Q419 110 459 158T500 304ZM352 737Q329 716 306 694T259 651Q230 651 211 667T192 708Q192 728 201 741T235 774L270 803Q296 823 315 832T354 841Q378 841 397 832T437 802L518 718Q518
686 502 670T456 654Q437 654 422 665T384 701L352 737Z" />
<glyph unicode="&#xd5;" glyph-name="Otilde" horiz-adv-x="700" d="M662 304Q662 226 639 166T573 66T474 4T350 -17Q283 -17 226 4T128 65T63 166T39 304Q39 382 63 441T129 541T227 603T350 624Q416 624 473 603T572 542T638 442T662 304ZM500 304Q500 400
460 448T350 497Q282 497 241 449T200 304Q200 207 240 159T350 110Q419 110 459 158T500 304ZM266 832Q287 832 306 828T344 817T377 807T405 802Q426 802 437 814T453 837H458Q487 837 508 817T530 765Q530 723 504 703T437 683Q413 683 393 687T356 698T324
708T297 713Q276 713 265 701T249 678H245Q216 678 194 697T172 750Q172 771 180 786T202 812T232 827T266 832Z" />
<glyph unicode="&#xd6;" glyph-name="Odieresis" horiz-adv-x="700" d="M662 304Q662 226 639 166T573 66T474 4T350 -17Q283 -17 226 4T128 65T63 166T39 304Q39 382 63 441T129 541T227 603T350 624Q416 624 473 603T572 542T638 442T662 304ZM500 304Q500 400
460 448T350 497Q282 497 241 449T200 304Q200 207 240 159T350 110Q419 110 459 158T500 304ZM323 744Q323 712 302 691T245 669Q210 669 189 690T168 744Q168 776 189 798T245 821Q280 821 301 799T323 744ZM530 744Q530 712 509 691T453 669Q418 669 397 690T375
744Q375 776 396 798T453 821Q488 821 509 799T530 744Z" />
<glyph unicode="&#xd7;" glyph-name="multiply" horiz-adv-x="502" d="M342 286L468 143Q459 111 438 93T388 74Q377 74 364 80T339 99L250 205L121 68Q86 74 62 96T38 143Q38 163 63 188L162 291L34 423Q38 436 46 449T64 473T87 489T113 496Q138 496 156 475L255
368L381 500Q409 492 430 471T452 421Q452 399 428 375L342 286Z" />
<glyph unicode="&#xd8;" glyph-name="Oslash" horiz-adv-x="700" d="M662 304Q662 226 639 166T573 66T474 4T350 -17Q296 -17 249 -3T162 39L107 -18Q75 -10 57 6T38 47Q38 63 46 77T77 111L87 120Q39 197 39 304Q39 382 63 441T129 541T227 603T350 624Q401
624 448 610T534 568L588 625Q620 617 638 600T657 561Q657 544 646 529T617 496L610 490Q635 452 648 406T662 304ZM504 304Q504 346 495 379L262 137Q298 110 350 110Q418 110 461 159T504 304ZM196 304Q196 264 204 229L436 471Q399 497 350 497Q282 497 239
449T196 304Z" />
<glyph unicode="&#xd9;" glyph-name="Ugrave" horiz-adv-x="661" d="M330 -17Q268 -17 220 0T137 48T85 122T67 220V608Q78 610 98 613T140 616Q185 616 204 601T224 542V223Q224 169 253 140T330 110Q378 110 407 139T437 223V608Q448 610 468 613T510 616Q555
616 574 601T594 542V220Q594 166 576 123T524 48T441 0T330 -17ZM164 745Q163 749 163 755T163 765Q163 798 181 817T228 836Q246 836 262 828T295 802L381 714Q377 682 358 667T317 652Q298 652 284 658T256 676L164 745Z" />
<glyph unicode="&#xda;" glyph-name="Uacute" horiz-adv-x="661" d="M330 -17Q268 -17 220 0T137 48T85 122T67 220V608Q78 610 98 613T140 616Q185 616 204 601T224 542V223Q224 169 253 140T330 110Q378 110 407 139T437 223V608Q448 610 468 613T510 616Q555
616 574 601T594 542V220Q594 166 576 123T524 48T441 0T330 -17ZM405 841Q443 841 464 823T486 777Q486 758 477 743T443 712L346 651Q310 651 291 667T272 705Q272 717 276 727T294 750L405 841Z" />
<glyph unicode="&#xdb;" glyph-name="Ucircumflex" horiz-adv-x="661" d="M330 -17Q268 -17 220 0T137 48T85 122T67 220V608Q78 610 98 613T140 616Q185 616 204 601T224 542V223Q224 169 253 140T330 110Q378 110 407 139T437 223V608Q448 610 468 613T510 616Q555
616 574 601T594 542V220Q594 166 576 123T524 48T441 0T330 -17ZM335 737Q312 716 289 694T242 651Q213 651 194 667T175 708Q175 728 184 741T218 774L253 803Q279 823 298 832T337 841Q361 841 380 832T420 802L501 718Q501 686 485 670T439 654Q420 654 405
665T367 701L335 737Z" />
<glyph unicode="&#xdc;" glyph-name="Udieresis" horiz-adv-x="661" d="M330 -17Q268 -17 220 0T137 48T85 122T67 220V608Q78 610 98 613T140 616Q185 616 204 601T224 542V223Q224 169 253 140T330 110Q378 110 407 139T437 223V608Q448 610 468 613T510 616Q555
616 574 601T594 542V220Q594 166 576 123T524 48T441 0T330 -17ZM302 744Q302 712 281 691T224 669Q189 669 168 690T147 744Q147 776 168 798T224 821Q259 821 280 799T302 744ZM509 744Q509 712 488 691T432 669Q397 669 376 690T354 744Q354 776 375 798T432
821Q467 821 488 799T509 744Z" />
<glyph unicode="&#xdd;" glyph-name="Yacute" horiz-adv-x="569" d="M555 544Q555 532 547 510T517 449T461 350T371 203V1Q360 -2 341 -4T300 -7Q253 -7 235 9T217 65V204Q191 242 161 289T102 385T48 481T8 565Q19 582 39 596T90 610Q125 610 147 596T189 541Q191
538 199 523T217 487T240 442T262 398T281 362T291 344H296Q312 377 325 407T352 466T378 526T407 593Q423 601 442 605T479 610Q511 610 533 593T555 544ZM351 841Q389 841 410 823T432 777Q432 758 423 743T389 712L292 651Q256 651 237 667T218 705Q218 717
222 727T240 750L351 841Z" />
<glyph unicode="&#xde;" glyph-name="Thorn" horiz-adv-x="577" d="M66 608Q77 610 97 613T138 616Q183 616 203 601T223 542V518H304Q365 518 410 503T486 460T531 394T546 307Q546 211 486 153T304 95H223V1Q212 -2 192 -4T150 -7Q103 -7 85 9T66 67V608ZM222
219H285Q333 219 360 240T387 307Q387 352 360 373T285 394H222V219Z" />
<glyph unicode="&#xdf;" glyph-name="germandbls" horiz-adv-x="615" d="M212 0Q202 -2 184 -5T144 -8Q99 -8 79 7T59 64V458Q59 514 77 555T128 623T203 663T296 677Q348 677 391 662T466 619T515 550T533 459Q533 436 525 421T498 396L462 379Q447 371 439 362T430
340Q430 328 438 319T463 302Q494 286 516 270T554 236T576 195T583 143Q583 104 569 74T531 24T473 -6T399 -17Q340 -17 304 1T268 56Q268 77 277 92T300 117Q314 108 331 102T371 96Q397 96 411 108T426 141Q426 161 415 173T378 200Q327 228 301 259T274 342Q274
382 298 411T366 458L381 464Q381 502 358 527T296 553Q259 553 236 530T212 458V0V0Z" />
<glyph unicode="&#xe0;" glyph-name="agrave" horiz-adv-x="535" d="M256 97Q278 97 299 101T332 113V205L250 198Q218 195 199 184T179 149Q179 125 197 111T256 97ZM250 496Q302 496 344 486T417 453T463 397T480 317V91Q480 65 467 50T434 23Q403 4 358 -6T256
-16Q153 -16 92 23T31 144Q31 213 72 249T198 294L331 308V319Q331 351 305 366T230 381Q192 381 156 372T90 351Q78 359 70 375T61 411Q61 455 107 474Q136 485 174 490T250 496ZM114 644Q113 648 113 654T112 665Q112 697 131 716T178 735Q196 735 213 727T245
702L334 590Q330 558 311 543T270 528Q251 528 238 533T211 552L114 644Z" />
<glyph unicode="&#xe1;" glyph-name="aacute" horiz-adv-x="535" d="M256 97Q278 97 299 101T332 113V205L250 198Q218 195 199 184T179 149Q179 125 197 111T256 97ZM250 496Q302 496 344 486T417 453T463 397T480 317V91Q480 65 467 50T434 23Q403 4 358 -6T256
-16Q153 -16 92 23T31 144Q31 213 72 249T198 294L331 308V319Q331 351 305 366T230 381Q192 381 156 372T90 351Q78 359 70 375T61 411Q61 455 107 474Q136 485 174 490T250 496ZM319 740Q365 739 388 720T412 674Q412 653 403 639T372 606L278 526Q238 526 218
544T197 586Q197 597 201 607T219 631L319 740Z" />
<glyph unicode="&#xe2;" glyph-name="acircumflex" horiz-adv-x="535" d="M256 97Q278 97 299 101T332 113V205L250 198Q218 195 199 184T179 149Q179 125 197 111T256 97ZM250 496Q302 496 344 486T417 453T463 397T480 317V91Q480 65 467 50T434 23Q403 4 358
-6T256 -16Q153 -16 92 23T31 144Q31 213 72 249T198 294L331 308V319Q331 351 305 366T230 381Q192 381 156 372T90 351Q78 359 70 375T61 411Q61 455 107 474Q136 485 174 490T250 496ZM265 624Q252 610 242 599T222 576T203 555T183 531Q148 532 127 547T106
589Q106 608 116 621T146 654L185 694Q202 711 221 722T267 733Q291 733 311 724T356 684L430 594Q430 569 415 551T370 533Q352 533 338 543T310 570L265 624Z" />
<glyph unicode="&#xe3;" glyph-name="atilde" horiz-adv-x="535" d="M256 97Q278 97 299 101T332 113V205L250 198Q218 195 199 184T179 149Q179 125 197 111T256 97ZM250 496Q302 496 344 486T417 453T463 397T480 317V91Q480 65 467 50T434 23Q403 4 358 -6T256
-16Q153 -16 92 23T31 144Q31 213 72 249T198 294L331 308V319Q331 351 305 366T230 381Q192 381 156 372T90 351Q78 359 70 375T61 411Q61 455 107 474Q136 485 174 490T250 496ZM180 703Q201 703 220 699T258 688T291 678T319 673Q340 673 351 685T367 708H372Q401
708 422 688T444 636Q444 594 418 574T351 554Q327 554 307 558T270 569T238 579T211 584Q190 584 179 572T163 549H159Q130 549 108 568T86 621Q86 642 94 657T116 683T146 698T180 703Z" />
<glyph unicode="&#xe4;" glyph-name="adieresis" horiz-adv-x="535" d="M256 97Q278 97 299 101T332 113V205L250 198Q218 195 199 184T179 149Q179 125 197 111T256 97ZM250 496Q302 496 344 486T417 453T463 397T480 317V91Q480 65 467 50T434 23Q403 4 358
-6T256 -16Q153 -16 92 23T31 144Q31 213 72 249T198 294L331 308V319Q331 351 305 366T230 381Q192 381 156 372T90 351Q78 359 70 375T61 411Q61 455 107 474Q136 485 174 490T250 496ZM244 624Q244 592 223 571T166 549Q131 549 110 570T89 624Q89 656 110 678T166
701Q201 701 222 679T244 624ZM451 624Q451 592 430 571T374 549Q339 549 318 570T296 624Q296 656 317 678T374 701Q409 701 430 679T451 624Z" />
<glyph unicode="&#xe5;" glyph-name="aring" horiz-adv-x="535" d="M256 97Q278 97 299 101T332 113V205L250 198Q218 195 199 184T179 149Q179 125 197 111T256 97ZM250 496Q302 496 344 486T417 453T463 397T480 317V91Q480 65 467 50T434 23Q403 4 358 -6T256
-16Q153 -16 92 23T31 144Q31 213 72 249T198 294L331 308V319Q331 351 305 366T230 381Q192 381 156 372T90 351Q78 359 70 375T61 411Q61 455 107 474Q136 485 174 490T250 496ZM138 635Q138 681 172 712T265 744Q327 744 361 713T396 635Q396 590 362 559T265
528Q206 528 172 559T138 635ZM231 635Q231 618 241 609T266 599Q282 599 292 608T302 635Q302 652 292 662T266 672Q252 672 242 662T231 635Z" />
<glyph unicode="&#xe6;" glyph-name="ae" horiz-adv-x="827" d="M250 496Q359 496 409 439Q441 468 480 482T564 496Q615 496 657 481T730 437T778 370T795 285Q795 253 778 237T730 216L470 177Q484 135 519 118T600 100Q642 100 679 111T739 137Q754 127 764
111T774 76Q774 53 760 36T722 8T664 -9T590 -15Q492 -15 428 34Q425 31 421 28T413 23Q383 6 347 -5T254 -16Q151 -16 91 23T31 144Q31 213 72 249T198 294L331 308V319Q331 351 305 366T230 381Q192 381 156 372T90 351Q78 359 70 375T61 411Q61 434 72 448T107
474Q135 485 174 490T250 496ZM256 97Q278 97 299 101T332 113V205L250 198Q218 195 199 184T179 149Q179 125 197 111T256 97ZM564 383Q522 383 494 357T460 280L651 311Q649 324 644 337T628 360T601 376T564 383Z" />
<glyph unicode="&#xe7;" glyph-name="ccedilla" horiz-adv-x="487" d="M319 375Q265 375 227 341T189 239Q189 172 225 139T318 106Q350 106 374 114T416 132Q433 119 442 105T452 69Q452 40 427 19T357 -10Q376 -42 376 -84Q376 -135 345 -167T258 -200Q219 -200
196 -182T172 -129Q172 -115 177 -100H188Q220 -100 234 -85T248 -47Q248 -39 246 -29T238 -10Q144 5 89 67T34 239Q34 304 55 352T112 432T196 480T297 496Q366 496 405 471T445 408Q445 390 437 375T416 349Q398 359 374 367T319 375Z" />
<glyph unicode="&#xe8;" glyph-name="egrave" horiz-adv-x="543" d="M186 177Q200 135 235 118T316 100Q358 100 395 111T455 137Q470 127 480 111T490 76Q490 53 476 36T438 8T380 -9T306 -15Q247 -15 197 1T111 50T55 132T34 247Q34 311 54 358T109 436T188
481T280 496Q331 496 373 481T446 437T494 370T511 285Q511 253 494 237T446 216L186 177ZM281 383Q238 383 210 357T176 280L367 311Q365 337 344 360T281 383ZM120 644Q119 648 119 654T118 665Q118 697 137 716T184 735Q202 735 219 727T251 702L340 590Q336
558 317 543T276 528Q257 528 244 533T217 552L120 644Z" />
<glyph unicode="&#xe9;" glyph-name="eacute" horiz-adv-x="543" d="M186 177Q200 135 235 118T316 100Q358 100 395 111T455 137Q470 127 480 111T490 76Q490 53 476 36T438 8T380 -9T306 -15Q247 -15 197 1T111 50T55 132T34 247Q34 311 54 358T109 436T188
481T280 496Q331 496 373 481T446 437T494 370T511 285Q511 253 494 237T446 216L186 177ZM281 383Q238 383 210 357T176 280L367 311Q365 337 344 360T281 383ZM336 740Q382 739 405 720T429 674Q429 653 420 639T389 606L295 526Q255 526 235 544T214 586Q214
597 218 607T236 631L336 740Z" />
<glyph unicode="&#xea;" glyph-name="ecircumflex" horiz-adv-x="543" d="M186 177Q200 135 235 118T316 100Q358 100 395 111T455 137Q470 127 480 111T490 76Q490 53 476 36T438 8T380 -9T306 -15Q247 -15 197 1T111 50T55 132T34 247Q34 311 54 358T109 436T188
481T280 496Q331 496 373 481T446 437T494 370T511 285Q511 253 494 237T446 216L186 177ZM281 383Q238 383 210 357T176 280L367 311Q365 337 344 360T281 383ZM281 624Q268 610 258 599T238 576T219 555T199 531Q164 532 143 547T122 589Q122 608 132 621T162
654L201 694Q218 711 237 722T283 733Q307 733 327 724T372 684L446 594Q446 569 431 551T386 533Q368 533 354 543T326 570L281 624Z" />
<glyph unicode="&#xeb;" glyph-name="edieresis" horiz-adv-x="543" d="M186 177Q200 135 235 118T316 100Q358 100 395 111T455 137Q470 127 480 111T490 76Q490 53 476 36T438 8T380 -9T306 -15Q247 -15 197 1T111 50T55 132T34 247Q34 311 54 358T109 436T188
481T280 496Q331 496 373 481T446 437T494 370T511 285Q511 253 494 237T446 216L186 177ZM281 383Q238 383 210 357T176 280L367 311Q365 337 344 360T281 383ZM245 624Q245 592 224 571T167 549Q132 549 111 570T90 624Q90 656 111 678T167 701Q202 701 223 679T245
624ZM452 624Q452 592 431 571T375 549Q340 549 319 570T297 624Q297 656 318 678T375 701Q410 701 431 679T452 624Z" />
<glyph unicode="&#xec;" glyph-name="igrave" horiz-adv-x="274" d="M145 -8Q100 -8 81 7T61 64V475Q71 478 89 481T129 484Q174 484 193 469T213 412V0Q203 -2 185 -5T145 -8ZM-20 644Q-21 648 -21 654T-22 665Q-22 697 -3 716T44 735Q62 735 79 727T111 702L200
590Q196 558 177 543T136 528Q117 528 104 533T77 552L-20 644Z" />
<glyph unicode="&#xed;" glyph-name="iacute" horiz-adv-x="274" d="M145 -8Q100 -8 81 7T61 64V475Q71 478 89 481T129 484Q174 484 193 469T213 412V0Q203 -2 185 -5T145 -8ZM195 740Q241 739 264 720T288 674Q288 653 279 639T248 606L154 526Q114 526 94 544T73
586Q73 597 77 607T95 631L195 740Z" />
<glyph unicode="&#xee;" glyph-name="icircumflex" horiz-adv-x="274" d="M145 -8Q100 -8 81 7T61 64V475Q71 478 89 481T129 484Q174 484 193 469T213 412V0Q203 -2 185 -5T145 -8ZM137 624Q124 610 114 599T94 576T75 555T55 531Q20 532 -1 547T-22 589Q-22
608 -12 621T18 654L57 694Q74 711 93 722T139 733Q163 733 183 724T228 684L302 594Q302 569 287 551T242 533Q224 533 210 543T182 570L137 624Z" />
<glyph unicode="&#xef;" glyph-name="idieresis" horiz-adv-x="274" d="M145 -8Q100 -8 81 7T61 64V475Q71 478 89 481T129 484Q174 484 193 469T213 412V0Q203 -2 185 -5T145 -8ZM110 624Q110 592 89 571T32 549Q-3 549 -24 570T-45 624Q-45 656 -24 678T32 701Q67
701 88 679T110 624ZM317 624Q317 592 296 571T240 549Q205 549 184 570T162 624Q162 656 183 678T240 701Q275 701 296 679T317 624Z" />
<glyph unicode="&#xf0;" glyph-name="eth" horiz-adv-x="576" d="M418 571Q471 509 505 428T540 256Q540 196 525 146T480 61T402 5T289 -15Q230 -15 183 1T103 49T52 124T34 224Q34 282 53 325T105 396T179 439T264 453Q311 453 349 437Q336 460 322 479T287
518L142 465Q128 475 118 491T108 527Q108 558 139 570L187 590Q169 598 150 605T109 619Q111 661 132 681T184 701Q219 701 257 687T332 648L442 693Q455 684 466 667T478 630Q478 610 469 600T444 582L418 571ZM383 226Q383 247 381 266T375 302Q358 319 337
328T293 338Q243 338 217 307T191 224Q191 169 216 138T290 106Q338 106 360 138T383 226Z" />
<glyph unicode="&#xf1;" glyph-name="ntilde" horiz-adv-x="579" d="M369 307Q369 342 348 359T292 376Q268 376 248 370T211 355V1Q201 -2 183 -4T143 -7Q98 -7 78 7T58 64V373Q58 399 69 415T100 445Q132 468 182 482T294 496Q403 496 462 448T522 311V1Q511
-2 493 -4T453 -7Q408 -7 389 7T369 64V307ZM205 703Q226 703 245 699T283 688T316 678T344 673Q365 673 376 685T392 708H397Q426 708 447 688T469 636Q469 594 443 574T376 554Q352 554 332 558T295 569T263 579T236 584Q215 584 204 572T188 549H184Q155 549
133 568T111 621Q111 642 119 657T141 683T171 698T205 703Z" />
<glyph unicode="&#xf2;" glyph-name="ograve" horiz-adv-x="580" d="M545 241Q545 182 527 135T476 54T395 3T290 -15Q232 -15 185 2T104 53T52 133T34 241Q34 299 52 346T104 427T185 478T290 496Q347 496 394 478T474 427T526 346T545 241ZM290 376Q243 376
217 341T191 241Q191 174 216 140T290 105Q338 105 363 140T389 241Q389 305 363 340T290 376ZM158 644Q157 648 157 654T156 665Q156 697 175 716T222 735Q240 735 257 727T289 702L378 590Q374 558 355 543T314 528Q295 528 282 533T255 552L158 644Z" />
<glyph unicode="&#xf3;" glyph-name="oacute" horiz-adv-x="580" d="M545 241Q545 182 527 135T476 54T395 3T290 -15Q232 -15 185 2T104 53T52 133T34 241Q34 299 52 346T104 427T185 478T290 496Q347 496 394 478T474 427T526 346T545 241ZM290 376Q243 376
217 341T191 241Q191 174 216 140T290 105Q338 105 363 140T389 241Q389 305 363 340T290 376ZM327 740Q373 739 396 720T420 674Q420 653 411 639T380 606L286 526Q246 526 226 544T205 586Q205 597 209 607T227 631L327 740Z" />
<glyph unicode="&#xf4;" glyph-name="ocircumflex" horiz-adv-x="580" d="M545 241Q545 182 527 135T476 54T395 3T290 -15Q232 -15 185 2T104 53T52 133T34 241Q34 299 52 346T104 427T185 478T290 496Q347 496 394 478T474 427T526 346T545 241ZM290 376Q243
376 217 341T191 241Q191 174 216 140T290 105Q338 105 363 140T389 241Q389 305 363 340T290 376ZM288 624Q275 610 265 599T245 576T226 555T206 531Q171 532 150 547T129 589Q129 608 139 621T169 654L208 694Q225 711 244 722T290 733Q314 733 334 724T379
684L453 594Q453 569 438 551T393 533Q375 533 361 543T333 570L288 624Z" />
<glyph unicode="&#xf5;" glyph-name="otilde" horiz-adv-x="580" d="M545 241Q545 182 527 135T476 54T395 3T290 -15Q232 -15 185 2T104 53T52 133T34 241Q34 299 52 346T104 427T185 478T290 496Q347 496 394 478T474 427T526 346T545 241ZM290 376Q243 376
217 341T191 241Q191 174 216 140T290 105Q338 105 363 140T389 241Q389 305 363 340T290 376ZM207 703Q228 703 247 699T285 688T318 678T346 673Q367 673 378 685T394 708H399Q428 708 449 688T471 636Q471 594 445 574T378 554Q354 554 334 558T297 569T265
579T238 584Q217 584 206 572T190 549H186Q157 549 135 568T113 621Q113 642 121 657T143 683T173 698T207 703Z" />
<glyph unicode="&#xf6;" glyph-name="odieresis" horiz-adv-x="580" d="M545 241Q545 182 527 135T476 54T395 3T290 -15Q232 -15 185 2T104 53T52 133T34 241Q34 299 52 346T104 427T185 478T290 496Q347 496 394 478T474 427T526 346T545 241ZM290 376Q243 376
217 341T191 241Q191 174 216 140T290 105Q338 105 363 140T389 241Q389 305 363 340T290 376ZM263 624Q263 592 242 571T185 549Q150 549 129 570T108 624Q108 656 129 678T185 701Q220 701 241 679T263 624ZM470 624Q470 592 449 571T393 549Q358 549 337 570T315
624Q315 656 336 678T393 701Q428 701 449 679T470 624Z" />
<glyph unicode="&#xf7;" glyph-name="divide" horiz-adv-x="524" d="M49 230Q43 240 39 255T34 288Q34 321 49 336T90 351H475Q481 342 485 326T490 291Q490 258 475 244T434 230H49ZM191 123Q191 155 211 176T265 198Q299 198 318 177T338 123Q338 91 319 70T265
49Q231 49 211 70T191 123ZM191 458Q191 490 211 511T265 533Q299 533 318 512T338 458Q338 426 319 405T265 384Q231 384 211 405T191 458Z" />
<glyph unicode="&#xf8;" glyph-name="oslash" horiz-adv-x="580" d="M545 241Q545 182 527 135T476 54T395 3T290 -15Q260 -15 233 -10T181 3L137 -61Q126 -61 115 -57T95 -47T80 -33T74 -15Q74 -5 82 6L110 47Q73 80 54 129T34 241Q34 299 52 346T104 427T185
478T290 496Q320 496 347 491T399 475L444 542Q453 542 464 539T484 529T500 515T507 497Q507 487 500 477L469 432Q505 398 525 350T545 241ZM399 241Q399 281 386 312L251 110Q260 107 269 105T290 103Q338 103 368 137T399 241ZM290 377Q243 377 212 343T181
241Q181 197 194 168L329 370Q320 373 311 375T290 377Z" />
<glyph unicode="&#xf9;" glyph-name="ugrave" horiz-adv-x="576" d="M520 100Q520 53 479 28Q447 8 400 -3T296 -15Q242 -15 198 -4T123 33T74 96T56 188V479Q67 482 85 485T125 488Q170 488 189 473T209 416V189Q209 144 232 125T297 105Q323 105 340 109T367
119V479Q377 482 395 485T435 488Q480 488 500 473T520 416V100ZM122 644Q121 648 121 654T120 665Q120 697 139 716T186 735Q204 735 221 727T253 702L342 590Q338 558 319 543T278 528Q259 528 246 533T219 552L122 644Z" />
<glyph unicode="&#xfa;" glyph-name="uacute" horiz-adv-x="576" d="M520 100Q520 53 479 28Q447 8 400 -3T296 -15Q242 -15 198 -4T123 33T74 96T56 188V479Q67 482 85 485T125 488Q170 488 189 473T209 416V189Q209 144 232 125T297 105Q323 105 340 109T367
119V479Q377 482 395 485T435 488Q480 488 500 473T520 416V100ZM355 740Q401 739 424 720T448 674Q448 653 439 639T408 606L314 526Q274 526 254 544T233 586Q233 597 237 607T255 631L355 740Z" />
<glyph unicode="&#xfb;" glyph-name="ucircumflex" horiz-adv-x="576" d="M520 100Q520 53 479 28Q447 8 400 -3T296 -15Q242 -15 198 -4T123 33T74 96T56 188V479Q67 482 85 485T125 488Q170 488 189 473T209 416V189Q209 144 232 125T297 105Q323 105 340 109T367
119V479Q377 482 395 485T435 488Q480 488 500 473T520 416V100ZM286 624Q273 610 263 599T243 576T224 555T204 531Q169 532 148 547T127 589Q127 608 137 621T167 654L206 694Q223 711 242 722T288 733Q312 733 332 724T377 684L451 594Q451 569 436 551T391
533Q373 533 359 543T331 570L286 624Z" />
<glyph unicode="&#xfc;" glyph-name="udieresis" horiz-adv-x="576" d="M520 100Q520 53 479 28Q447 8 400 -3T296 -15Q242 -15 198 -4T123 33T74 96T56 188V479Q67 482 85 485T125 488Q170 488 189 473T209 416V189Q209 144 232 125T297 105Q323 105 340 109T367
119V479Q377 482 395 485T435 488Q480 488 500 473T520 416V100ZM259 624Q259 592 238 571T181 549Q146 549 125 570T104 624Q104 656 125 678T181 701Q216 701 237 679T259 624ZM466 624Q466 592 445 571T389 549Q354 549 333 570T311 624Q311 656 332 678T389
701Q424 701 445 679T466 624Z" />
<glyph unicode="&#xfd;" glyph-name="yacute" horiz-adv-x="539" d="M136 120Q113 170 84 250T22 459Q34 472 55 481T102 491Q134 491 154 478T185 428Q207 355 229 284T275 141H279Q291 175 304 215T329 299T351 387T370 474Q401 491 435 491Q467 491 490 477T513
431Q513 395 501 340T468 224T422 104T369 -1Q313 -96 268 -142T177 -189Q140 -189 116 -167T87 -109Q119 -81 153 -44T212 32Q195 37 177 54T136 120ZM310 740Q356 739 379 720T403 674Q403 653 394 639T363 606L269 526Q229 526 209 544T188 586Q188 597 192
607T210 631L310 740Z" />
<glyph unicode="&#xfe;" glyph-name="thorn" horiz-adv-x="581" d="M299 -15Q273 -15 251 -11T211 1V-169Q201 -172 183 -175T143 -178Q98 -178 78 -163T58 -106V651Q69 654 87 657T127 660Q172 660 191 645T211 588V480Q230 486 253 491T304 496Q353 496 397
482T474 436T526 357T545 243Q545 180 527 132T475 51T397 2T299 -15ZM276 106Q330 106 359 140T389 243Q389 314 359 345T281 376Q264 376 247 372T211 359V123Q225 115 241 111T276 106Z" />
<glyph unicode="&#xff;" glyph-name="ydieresis" horiz-adv-x="539" d="M136 120Q113 170 84 250T22 459Q34 472 55 481T102 491Q134 491 154 478T185 428Q207 355 229 284T275 141H279Q291 175 304 215T329 299T351 387T370 474Q401 491 435 491Q467 491 490
477T513 431Q513 395 501 340T468 224T422 104T369 -1Q313 -96 268 -142T177 -189Q140 -189 116 -167T87 -109Q119 -81 153 -44T212 32Q195 37 177 54T136 120ZM240 624Q240 592 219 571T162 549Q127 549 106 570T85 624Q85 656 106 678T162 701Q197 701 218 679T240
624ZM447 624Q447 592 426 571T370 549Q335 549 314 570T292 624Q292 656 313 678T370 701Q405 701 426 679T447 624Z" />
<glyph unicode="&#x2013;" glyph-name="endash" horiz-adv-x="540" d="M43 194Q37 204 32 220T26 254Q26 287 41 302T83 317H497Q502 308 507 292T513 257Q513 224 498 209T457 194H43Z" />
<glyph unicode="&#x2014;" glyph-name="emdash" horiz-adv-x="774" d="M51 195Q45 205 40 221T35 255Q35 288 50 303T91 318H723Q728 308 734 292T740 258Q740 225 725 210T684 195H51Z" />
<glyph unicode="&#x2018;" glyph-name="quoteleft" horiz-adv-x="206" d="M68 602Q79 619 92 626T127 634Q144 634 158 630T186 620Q184 592 181 562T176 501T171 441T167 386Q154 379 135 373T96 367Q66 367 43 379T19 426Q19 445 23 469T34 518T50 565T68 602Z" />
<glyph unicode="&#x2019;" glyph-name="quoteright" horiz-adv-x="204" d="M138 399Q127 382 114 375T79 367Q62 367 48 371T20 381Q25 438 30 501T39 615Q52 622 71 628T111 634Q140 634 163 621T187 575Q187 556 183 532T172 483T156 436T138 399Z" />
<glyph unicode="&#x201a;" glyph-name="quotesinglbase" horiz-adv-x="210" d="M138 -98Q127 -115 114 -122T79 -130Q62 -130 48 -126T20 -116Q25 -59 30 4T39 118Q52 125 71 131T111 137Q140 137 163 124T187 78Q187 59 183 35T172 -14T156 -61T138 -98Z" />
<glyph unicode="&#x201c;" glyph-name="quotedblleft" horiz-adv-x="389" d="M258 602Q269 619 281 626T314 634Q331 634 343 631T369 622Q364 565 358 501T349 385Q335 378 318 373T281 367Q250 367 230 379T210 426Q210 445 214 469T224 518T240 565T258 602ZM67
602Q78 619 90 626T122 634Q139 634 151 631T178 622Q173 565 167 501T158 385Q144 378 127 373T90 367Q59 367 39 379T18 426Q18 445 22 469T33 518T49 565T67 602Z" />
<glyph unicode="&#x201d;" glyph-name="quotedblright" horiz-adv-x="389" d="M130 399Q120 382 108 375T75 367Q58 367 46 370T20 380Q22 408 25 439T30 501T35 561T39 617Q52 623 69 628T106 634Q137 634 157 621T178 575Q178 556 174 532T164 483T148 436T130
399ZM322 399Q311 382 299 375T266 367Q249 367 237 370T211 380Q214 408 216 439T222 501T227 561T230 617Q244 623 261 628T297 634Q328 634 348 621T369 575Q369 556 365 532T355 483T340 436T322 399Z" />
<glyph unicode="&#x201e;" glyph-name="quotedblbase" horiz-adv-x="392" d="M130 -98Q120 -115 108 -122T75 -130Q58 -130 46 -127T20 -117Q22 -89 25 -58T30 4T35 64T39 120Q52 126 69 131T106 137Q137 137 157 124T178 78Q178 59 174 35T164 -14T148 -61T130
-98ZM322 -98Q311 -115 299 -122T266 -130Q249 -130 237 -127T211 -117Q214 -89 216 -58T222 4T227 64T230 120Q244 126 261 131T297 137Q328 137 348 124T369 78Q369 59 365 35T355 -14T340 -61T322 -98Z" />
<glyph unicode="&#x2022;" glyph-name="bullet" horiz-adv-x="303" d="M38 282Q38 330 68 363T151 397Q204 397 235 364T266 282Q266 234 235 201T151 168Q99 168 69 201T38 282Z" />
<glyph unicode="&#x2039;" glyph-name="guilsinglleft" horiz-adv-x="316" d="M283 92Q283 66 266 45T212 23Q192 23 176 34T144 62L44 164Q39 174 35 189T30 219Q30 248 37 265T56 293L202 436Q237 427 254 409T272 368Q272 348 264 333T230 292L156 222L283 92Z" />
<glyph unicode="&#x203a;" glyph-name="guilsinglright" horiz-adv-x="316" d="M34 368Q34 394 51 415T104 436Q124 436 140 426T172 398L272 295Q278 286 282 271T286 241Q286 212 279 195T260 167L114 23Q79 33 62 51T44 92Q44 112 52 127T87 168L160 238L34 368Z" />
</font>
</defs>
</svg>
